<?xml version="1.0" encoding="UTF-8" standalone="no"?>
<!-- Created with Inkscape (http://www.inkscape.org/) -->

<svg
   version="1.1"
   id="svg1"
   width="2730.6667"
   height="1908"
   viewBox="0 0 2730.6667 1908"
   sodipodi:docname="svg_black_logo.svg"
   inkscape:version="1.4 (86a8ad7, 2024-10-11)"
   xmlns:inkscape="http://www.inkscape.org/namespaces/inkscape"
   xmlns:sodipodi="http://sodipodi.sourceforge.net/DTD/sodipodi-0.dtd"
   xmlns="http://www.w3.org/2000/svg"
   xmlns:svg="http://www.w3.org/2000/svg">
  <defs
     id="defs1" />
  <sodipodi:namedview
     id="namedview1"
     pagecolor="#ffffff"
     bordercolor="#000000"
     borderopacity="0.25"
     inkscape:showpageshadow="2"
     inkscape:pageopacity="0.0"
     inkscape:pagecheckerboard="0"
     inkscape:deskcolor="#d1d1d1"
     inkscape:zoom="0.35355339"
     inkscape:cx="963.07943"
     inkscape:cy="1071.9739"
     inkscape:window-width="1920"
     inkscape:window-height="991"
     inkscape:window-x="-9"
     inkscape:window-y="-9"
     inkscape:window-maximized="1"
     inkscape:current-layer="g1" />
  <g
     inkscape:groupmode="layer"
     inkscape:label="Image"
     id="g1">
    <path
       style="fill:#000000"
       d="m 1381.7852,1799.1482 c -194.3552,-9.153 -372.3794,-69.2262 -524.66659,-177.0456 -67.57289,-47.8416 -135.91214,-113.2282 -185.50617,-177.4912 -68.92347,-89.3097 -117.51069,-188.193 -143.80445,-292.6666 -9.87382,-39.232 -13.61968,-60.3195 -20.36867,-114.6667 -2.88429,-23.2262 -3.29042,-120.80537 -0.59379,-142.66663 7.39633,-59.96103 16.47215,-108.39127 26.23601,-140 14.66314,-47.46932 21.86384,-67.50986 35.73616,-99.4587 28.88404,-66.52181 69.88005,-133.08994 118.28204,-192.06292 26.21676,-31.9425 68.94651,-75.83421 100.68553,-103.42349 144.15376,-125.30625 326.35583,-203.9953 522.66663,-225.72811 48.8036,-5.40287 70.3786,-6.36147 125.9137,-5.59454 57.2201,0.7902 90.7958,3.4419 140.0863,11.06356 116.8376,18.06631 229.2377,56.84998 329.3334,113.63662 154.3079,87.54248 277.0993,214.59941 352.0062,364.23425 44.7754,89.44371 70.7334,181.11297 80.2315,283.33333 2.2979,24.73027 2.2985,100.98283 0,125.33333 -13.5215,143.3099 -59.0438,268.0517 -140.6207,385.3333 -77.7331,111.7556 -194.4601,213.8115 -315.6181,275.9491 -6.9667,3.573 -14.486,7.5124 -16.7096,8.7544 -19.347,10.8057 -77.814,35.5501 -112.6238,47.6645 -83.2023,28.9559 -158.5425,44.7688 -252.6667,53.0315 -21.5953,1.8958 -96.7804,3.4699 -118,2.4706 z m 38.9586,-32.5954 c 6.4725,-1.7976 12.4534,-6.9332 16.0434,-13.7758 2.6127,-4.9799 2.8823,-7.5122 2.8568,-26.8322 -0.025,-19.1746 -0.3172,-21.8898 -2.885,-26.8323 -5.5001,-10.5867 -14.0685,-15.0223 -25.9428,-13.4296 -6.6246,0.8885 -11.0655,4.01 -16.3643,11.5024 l -4,5.6558 v 22.8852 c 0,19.4747 0.3557,23.5365 2.387,27.256 3.2719,5.9913 9.4784,11.3213 15.3629,13.1933 6.3064,2.0063 6.6399,2.0163 12.542,0.3772 z m -14.9368,-15.7145 c -4.6034,-4.6034 -6.0077,-13.3629 -5.0568,-31.5424 0.4856,-9.2839 1.27,-13.1774 3.1734,-15.7506 5.2721,-7.1276 13.0463,-8.1494 19.3243,-2.54 3.762,3.3613 4.2753,4.7683 5.2294,14.3333 1.2829,12.8606 0.2615,27.9724 -2.2237,32.9 -3.7921,7.519 -14.2036,8.8428 -20.4466,2.5997 z m 56.6087,-0.5602 c -0.5153,-8.9833 -1.0179,-16.9333 -1.117,-17.6667 -0.099,-0.7333 2.8199,-1.5032 6.4865,-1.7109 l 6.6667,-0.3775 8.6245,16.7109 8.6245,16.7109 h 5.7088 c 3.6876,0 5.7027,-0.5901 5.6913,-1.6667 -0.01,-0.9167 -3.8899,-8.7944 -8.6227,-17.5061 l -8.6052,-15.8394 3.9774,-3.7154 c 4.9064,-4.5833 7.9347,-11.5602 7.9347,-18.2804 0,-6.8877 -4.9811,-16.2831 -10.6666,-20.1193 -4.5129,-3.0449 -5.2377,-3.1187 -21.9943,-2.2387 -9.5302,0.5006 -17.5084,1.0909 -17.7294,1.3118 -0.2209,0.221 0.4943,12.6235 1.5894,27.5613 1.0952,14.9377 2.3794,33.0095 2.8538,40.1595 l 0.8627,13 h 5.3259 5.3258 z m -2.427,-36.3571 c -0.4786,-3.4917 -0.8701,-8.8872 -0.8701,-11.99 v -5.6417 l 9.0957,-0.8962 c 14.059,-1.3854 18.9043,1.6193 18.9043,11.723 0,2.9714 -1.1281,5.9915 -3.09,8.2723 -2.7202,3.1623 -4.2916,3.6694 -13.1299,4.2366 l -10.0398,0.6443 z m -91.7348,43.0238 c 1.4773,-4.5834 4.8908,-15.8334 7.5855,-25 2.6947,-9.1667 6.6349,-22.3428 8.756,-29.2804 5.1386,-16.8069 5.0944,-17.3863 -1.325,-17.3863 h -5.1815 l -4.2416,15.6667 c -7.6346,28.1985 -9.8093,35.6517 -10.7083,36.6995 -0.7306,0.8515 -4.5495,-20.4493 -8.8634,-49.4371 -0.809,-5.4358 -1.0668,-5.7163 -4.9028,-5.3334 -4.5048,0.4498 -3.5676,-1.7504 -15.6746,36.7991 -3.0622,9.7505 -5.7995,17.4964 -6.0829,17.213 -0.2834,-0.2833 -1.7014,-11.261 -3.1511,-24.3948 -3.8618,-34.9844 -3.1571,-32.5463 -9.406,-32.5463 -3.4749,0 -5.273,0.5993 -5.273,1.7575 0,2.9534 10.6468,77.4552 11.3365,79.3276 0.3935,1.0685 2.2567,1.5886 4.7761,1.3334 4.5464,-0.4606 3.7627,1.4263 15.9555,-38.4185 3.8554,-12.5992 6.5986,-18.9189 6.5986,-15.2017 0,2.9702 8.1704,54.3986 8.8055,55.4263 0.3769,0.6098 2.4009,1.1087 4.4978,1.1087 3.5014,0 4.0319,-0.6802 6.4987,-8.3333 z m 154.546,3.7631 c 0.3764,-0.3764 0.012,-5.8904 -0.8091,-12.2534 l -1.4934,-11.5691 4.7405,-7.8036 c 2.6072,-4.2921 4.9864,-7.8037 5.287,-7.8037 0.3006,0 5.971,8.1049 12.6009,18.0108 l 12.0544,18.0109 5.6359,-0.8631 c 3.0997,-0.4747 5.8394,-1.0331 6.0883,-1.2411 0.2489,-0.2079 -6.2821,-10.1103 -14.5133,-22.0054 -8.2312,-11.8951 -15.0348,-22.2915 -15.1192,-23.1031 -0.084,-0.8116 3.6198,-8.8257 8.2315,-17.809 l 8.3847,-16.3333 h -5.294 c -6.4928,0 -7.095,0.7854 -19.4222,25.3333 -4.9715,9.9 -9.494,18.4968 -10.0501,19.1039 -0.5561,0.6072 -1.7629,-5.0928 -2.6817,-12.6666 -3.3565,-27.6671 -2.7733,-25.7163 -7.8337,-26.2011 -2.4714,-0.2367 -4.9457,0.063 -5.4982,0.6667 -0.5526,0.6034 0.338,10.6971 1.9789,22.4304 1.641,11.7334 4.0771,29.6444 5.4135,39.8023 l 2.4299,18.469 4.5926,-0.7453 c 2.5259,-0.4099 4.9005,-1.0532 5.2768,-1.4295 z m 57.8849,-3.8994 c 3.0182,-3.7827 3.4493,-5.3413 2.8053,-10.1428 -0.755,-5.6285 -0.7976,-5.6674 -5.3981,-4.9208 -2.5504,0.4139 -4.8926,1.0079 -5.2048,1.3202 -0.8465,0.8465 2.3652,18.213 3.3683,18.213 0.4747,-10e-5 2.4679,-2.0114 4.4293,-4.4696 z m -303.7399,-3.8637 c 2.2425,-8.3681 2.1759,-8.4173 -15.8814,-11.7294 -16.6618,-3.0561 -16.7193,-3.0794 -16.0504,-6.5022 0.3693,-1.8893 1.3706,-7.1773 2.2252,-11.7512 1.3945,-7.4634 1.8439,-8.2485 4.3837,-7.6575 4.012,0.9336 23.9923,4.6398 25.0149,4.64 1.1002,3e-4 2.8763,-9.3829 1.9511,-10.3081 -0.3865,-0.3864 -6.4477,-1.7477 -13.4694,-3.025 -7.0218,-1.2773 -13.1314,-2.6869 -13.577,-3.1324 -0.9997,-0.9998 2.275,-20.7296 3.5739,-21.5324 0.5162,-0.319 8.2172,0.8133 17.1133,2.5162 l 16.1746,3.0963 0.8259,-4.4023 c 0.4542,-2.4212 0.5734,-5.1597 0.2648,-6.0856 -0.4949,-1.4847 -42.1308,-9.8156 -43.2855,-8.6609 -0.4448,0.4448 -8.7073,46.0482 -11.9539,65.9779 -1.1149,6.8439 -1.6733,12.7972 -1.2409,13.2296 0.5739,0.5738 32.0211,6.6734 42.2826,8.2012 0.4645,0.069 1.2063,-1.2242 1.6485,-2.8742 z m 346.3136,-7.6485 c 1.6869,-0.014 2.3084,-2.0276 2.9357,-9.5094 0.4376,-5.2202 1.1017,-9.7972 1.4757,-10.1712 0.852,-0.852 20.7315,-5.6464 23.4705,-5.6605 1.112,-0.01 4.0355,3.3562 6.4966,7.4709 4.3192,7.2213 4.637,7.4549 9.1434,6.7236 2.5677,-0.4166 4.9788,-1.0678 5.358,-1.447 0.6853,-0.6853 -4.3457,-9.3697 -21.6805,-37.4246 -4.9843,-8.0667 -11.8247,-19.3188 -15.2008,-25.0048 -5.8755,-9.8952 -6.3099,-10.3027 -10.1385,-9.5109 -2.2,0.455 -4.2794,1.0865 -4.6209,1.4035 -0.6537,0.6066 -5.1552,67.1249 -5.2967,78.2677 -0.077,6.0942 0.1,6.44 2.9176,5.6849 1.65,-0.4422 3.963,-0.8122 5.1399,-0.8222 z m 4.0048,-41.5182 c 0.08,-5.4083 0.5296,-13.3179 1,-17.5769 l 0.8553,-7.7435 8,13.7232 c 4.4,7.5478 8.1876,14.4492 8.4169,15.3364 0.3938,1.524 -4.3505,3.2809 -14.1562,5.242 l -4.2607,0.8521 z m -400.1572,1.4587 c 5.3392,-21.2894 9.4006,-39.015 9.0253,-39.3903 -0.3753,-0.3754 -2.746,-1.0173 -5.2682,-1.4266 l -4.5858,-0.7442 -6.4171,25.8012 c -3.5294,14.1907 -6.7942,26.2253 -7.2551,26.7435 -0.4609,0.5183 -2.8358,-6.6817 -5.2776,-16 -6.1696,-23.5441 -12.0175,-44.5285 -12.5605,-45.0715 -0.2508,-0.2508 -2.4871,-0.6243 -4.9697,-0.8301 l -4.5138,-0.374 -9.6787,38 c -5.3233,20.9 -9.7104,38.377 -9.7492,38.8378 -0.039,0.4608 2.2965,1.4386 5.1894,2.1729 l 5.2599,1.3351 2.7595,-11.5062 c 4.4108,-18.392 10.5452,-41.7752 11.1066,-42.3367 0.284,-0.2839 3.6617,11.3368 7.5061,25.8238 9.6804,36.4786 9.5738,36.1509 11.9676,36.7913 7.8114,2.0897 7.0216,3.8006 17.4613,-37.826 z m 458.4802,23.9109 c 2.3094,-0.8051 4.199,-2.2194 4.199,-3.1428 0,-0.9235 -3.6,-12.9505 -8,-26.7268 -4.4,-13.7763 -8,-25.3302 -8,-25.6754 0,-0.3452 7.8349,6.7906 17.4109,15.8572 9.576,9.0667 20.3697,19.0835 23.986,22.2595 6.3701,5.5947 6.7239,5.7256 11.3471,4.1998 3.1689,-1.0458 4.5337,-2.1962 4.0624,-3.4243 -0.3903,-1.0171 -5.8967,-17.907 -12.2364,-37.5331 -6.3396,-19.626 -11.9493,-36.1416 -12.4659,-36.7012 -1.2249,-1.3271 -9.4375,1.5389 -9.4375,3.2934 0,0.7416 3.6045,12.4785 8.01,26.0819 4.4054,13.6034 7.7322,25.0111 7.3928,25.3505 -0.5658,0.5658 -4.8733,-3.3769 -35.8445,-32.8092 l -10.4417,-9.9229 -5.2634,1.5769 c -2.8949,0.8674 -5.0187,1.9977 -4.7196,2.512 0.2992,0.5142 5.7535,17.1349 12.1209,36.9349 6.3673,19.8 11.821,36.75 12.1194,37.6667 0.6577,2.0207 0.5561,2.0171 5.7605,0.2029 z m -537.1585,-10.524 c 7.6884,-3.9223 11.4973,-9.9188 17.4634,-27.4934 6.3414,-18.68 7.3428,-24.6628 5.3603,-32.0253 -4.2023,-15.6061 -22.0098,-22.7891 -35.4373,-14.2942 -7.8121,4.9423 -10.809,9.9552 -16.7606,28.0355 -6.2569,19.0074 -6.787,27.8073 -2.198,36.4851 5.7141,10.8055 20.231,15.0782 31.5722,9.2923 z m -19.4426,-13.8789 c -5.8371,-5.8372 -5.8119,-8.8942 0.2274,-27.5755 6.0423,-18.6909 9.669,-23.2245 18.5787,-23.2245 8.0759,0 12.6606,4.6824 12.6606,12.9306 0,6.4643 -4.2934,21.6034 -8.9117,31.4237 -5.5041,11.704 -14.6756,14.325 -22.555,6.4457 z m 628.8504,-0.1404 c 13.0397,-5.4013 16.8223,-7.9155 20.8826,-13.8799 4.9504,-7.2721 5.3046,-15.0402 1.2481,-27.3726 -5.3416,-16.239 -12.7322,-30.0418 -18.5349,-34.6158 -3.9524,-3.1156 -6.7021,-4.0791 -12.9255,-4.5293 -6.8242,-0.4936 -9.6018,0.1157 -20.3129,4.4555 -6.8243,2.7649 -12.6326,5.2095 -12.9075,5.4323 -0.7613,0.6172 29.3736,75.1835 30.3843,75.1835 0.4855,0 5.9601,-2.1031 12.1658,-4.6737 z m -17.9465,-36.6768 c -5.8095,-14.6492 -10.3095,-26.8378 -10,-27.0856 0.3096,-0.2479 4.2306,-1.7935 8.7134,-3.4348 7.4402,-2.7241 8.5443,-2.8177 12.6667,-1.074 2.4838,1.0506 5.6076,3.1362 6.9417,4.6346 3.0618,3.4387 14.2427,31.1085 14.236,35.2303 -0.01,5.262 -4.9614,11.6844 -11.0074,14.273 -11.7283,5.0215 -9.8322,7.005 -21.5504,-22.5435 z m -653.1739,31.6838 c 0.7469,-1.65 6.3381,-15.6 12.4248,-31 6.0868,-15.4 11.4901,-28.4881 12.0074,-29.0847 0.5173,-0.5966 4.7259,0.4534 9.3524,2.3334 4.6265,1.8799 8.5619,3.418 8.7452,3.418 1.1164,0 3.2871,-9.7583 2.3508,-10.5677 -2.6937,-2.3284 -43.5365,-17.5558 -44.3777,-16.5453 -0.5095,0.6122 -1.6377,2.7855 -2.5071,4.8296 -1.5302,3.5977 -1.3998,3.794 4.0801,6.1402 3.1134,1.3331 7.0108,2.8511 8.6608,3.3733 1.65,0.5223 3,1.4982 3,2.1687 0,0.8998 -19.2256,49.9523 -24.8727,63.4605 -0.3509,0.8393 1.0519,2.142 3.1174,2.8948 5.5844,2.0354 6.53,1.8678 8.0186,-1.4208 z m -37.041,-16.9681 c 9.445,-2.7088 16.111,-12.7973 16.111,-24.3827 0,-5.8621 -0.7288,-8.1149 -4.1153,-12.7198 -2.2635,-3.0778 -4.6617,-5.596 -5.3295,-5.596 -0.6678,0 -3.6159,-2.1699 -6.5513,-4.8218 -6.1595,-5.5648 -6.9127,-10.149 -2.5738,-15.6651 2.1768,-2.7673 3.9157,-3.5131 8.1905,-3.5131 4.7341,0 6.2776,0.8505 12.0882,6.6611 l 6.6611,6.6611 4.4817,-2.7699 c 2.465,-1.5234 4.4818,-3.2309 4.4818,-3.7944 0,-2.3606 -8.0802,-11.9209 -12.2059,-14.4417 -7.9848,-4.8788 -15.0689,-6.3157 -21.1849,-4.2973 -9.1848,3.0313 -17.3363,14.6897 -17.2335,24.6477 0.061,5.8756 4.8461,13.0036 13.2909,19.7968 10.0104,8.0525 11.52,12.3971 6.5176,18.7566 -2.66,3.3816 -3.566,3.6852 -9.3421,3.1302 -7.3735,-0.7085 -14.6927,-5.583 -18.7769,-12.5052 l -2.6256,-4.4501 -5.2358,2.6711 c -5.1799,2.6426 -5.2148,2.7118 -3.2683,6.4761 4.7644,9.2132 14.2744,17.2491 23.5837,19.928 6.0025,1.7273 7.706,1.7571 13.0364,0.2284 z m 780.1773,-8.7328 c 2.1636,-1.1188 3.9338,-2.3941 3.9338,-2.834 0,-0.4398 -4.8,-9.9491 -10.6667,-21.1317 -5.8667,-11.1826 -10.6667,-20.7367 -10.6667,-21.2312 0,-0.4946 6.7025,5.0925 14.8945,12.4158 14.8443,13.2701 14.9071,13.3084 18.6666,11.3642 4.4068,-2.2788 4.3847,-1.9893 1.7069,-22.4082 -1.1359,-8.6617 -1.8386,-16.4288 -1.5615,-17.2602 0.2772,-0.8314 5.4538,7.9304 11.5037,19.4706 6.0499,11.5403 11.4191,20.9823 11.9315,20.9823 0.7421,0 5.3067,-2.7475 8.0119,-4.8226 0.4332,-0.3323 -35.3131,-69.667 -36.6477,-71.083 -0.2966,-0.3148 -2.5212,0.3727 -4.9435,1.5278 l -4.4041,2.1002 3.1124,24.4721 c 1.7118,13.4597 2.9512,25.7761 2.7542,27.3699 -0.3038,2.4578 -3.4671,0.1715 -20.8396,-15.0618 -11.2647,-9.8777 -20.8647,-17.7624 -21.3333,-17.5216 -0.4686,0.2409 -2.4964,1.2624 -4.5062,2.2701 l -3.6543,1.8323 11.4999,22.125 c 18.444,35.4847 25.9721,49.4583 26.6451,49.4583 0.3461,0 2.3995,-0.9154 4.5631,-2.0343 z m -850.97837,-22.3758 c 1.6601,-1.3205 5.5788,-7.9862 5.5788,-9.4895 0,-0.8676 -8.1055,-5.1261 -8.6262,-4.5321 -1.1122,1.2689 -8.7071,15.4575 -8.7071,16.2666 0,1.3092 9.5887,-0.5222 11.7545,-2.245 z m 484.24547,0.3868 c 32.1853,-1.7681 60.9252,-4.6439 87.3333,-8.7388 135.1839,-20.9621 262.5557,-75.8448 366,-157.7044 30.7411,-24.3266 70.9419,-62.3131 94.3479,-89.151 86.5902,-99.2865 140.139,-214.2729 157.5834,-338.3825 4.3946,-31.2652 5.6599,-50.4913 5.6599,-85.99999 0,-35.57604 -1.2479,-54.44826 -5.7305,-86.66667 C 2142.1714,697.39185 2029.401,527.10526 1857.7853,416.37275 1695.7707,311.83532 1493.1432,270.11899 1295.7852,300.6699 c -50.0658,7.75017 -104.3554,21.54846 -149.6796,38.04273 -146.44447,53.29365 -270.13459,145.88098 -355.22211,265.89884 -96.16412,135.64165 -135.23444,295.82699 -111.9107,458.82533 27.5547,192.5666 150.60321,369.3418 332.81241,478.1285 132.6767,79.2137 295.1359,118.9368 451.3334,110.3562 z m -86,-5.4779 c -143.8307,-7.9824 -283.143,-54.3224 -399.23097,-132.7976 -110.77927,-74.8865 -197.98047,-177.8966 -248.06275,-293.0346 -34.97107,-80.3976 -52.0222,-161.9022 -52.0222,-248.66659 0,-86.76527 17.05504,-168.28703 52.02317,-248.66667 66.00295,-151.71797 194.62848,-279.7622 355.11795,-353.51304 166.2524,-76.39913 355.2029,-93.99968 534.8414,-49.81995 114.5563,28.17361 222.1243,82.47636 311.3283,157.16554 19.0597,15.95842 59.2159,55.12716 74.5162,72.68393 95.8138,109.9437 150.276,235.77316 161.5126,373.15819 3.0791,37.64647 1.5865,93.61329 -3.4934,130.99199 -15.0452,110.7054 -59.3693,214.922 -130.4276,306.6666 -39.5704,51.09 -93.3882,102.5114 -148.8138,142.1877 -143.0595,102.4086 -324.5107,153.7885 -507.2889,143.6445 z m 415.6665,-363.1522 c 31.8747,-3.7285 48.5556,-8.2901 71.3189,-19.5026 37.6774,-18.5588 63.9284,-49.332 66.6138,-78.0894 l 0.7864,-8.4213 h -38.021 -38.0211 l -0.8537,6.4355 c -2.2816,17.1996 -16.0714,32.3685 -36.9696,40.6668 -25.0264,9.9377 -76.9317,10.3896 -104.5202,0.9101 -21.6855,-7.4512 -45.5364,-23.3916 -57.3274,-38.3138 -12.849,-16.2613 -22.2352,-38.8745 -26.1632,-63.0319 -2.4162,-14.86 -2.4535,-64.9938 -0.059,-78.6667 9.1071,-51.99298 35.9612,-84.53889 82.8825,-100.4495 18.7353,-6.35298 33.0584,-8.07425 59.3334,-7.13034 25.1949,0.90511 37.4085,3.29906 52.29,10.2492 18.1835,8.49228 28.7327,21.35161 30.6253,37.332 l 0.7894,6.66535 h 38.0077 38.0077 l -0.7843,-9 c -1.5415,-17.69194 -8.4703,-31.65363 -23.5561,-47.46618 -21.5506,-22.58884 -55.1063,-39.29114 -92.8808,-46.2313 -46.4723,-8.53818 -102.2564,-5.62268 -142.7471,7.46053 -53.7988,17.38323 -93.4656,55.77908 -111.4927,107.92024 -16.035,46.3796 -16.6203,108.6038 -1.4671,155.9833 14.073,44.0024 45.9184,81.4058 86.6291,101.7491 37.1447,18.5612 96.2155,26.9392 147.5787,20.9309 z m -764.3332,-134.0133 0.6667,-119.3333 32.5493,63.3333 c 17.9021,34.8333 39.0184,75.9333 46.9252,91.3333 l 14.3758,28 h 29.0748 29.0749 l 14,-27.3343 c 7.7,-15.0339 24.5,-47.7315 37.3333,-72.6614 12.8333,-24.9299 27.5333,-53.5765 32.6667,-63.6591 5.1333,-10.0826 9.7833,-18.3349 10.3333,-18.3386 0.55,0 1,53.6934 1,119.3268 v 119.3333 h 34 34 V 1077.9448 886.61147 l -32.3333,0.009 -32.3334,0.009 -17.6724,34.99069 c -9.7199,19.24488 -27.6064,54.49069 -39.7479,78.32403 -12.1414,23.83331 -32.2984,63.43331 -44.7932,88.00001 -12.4949,24.5666 -23.1764,45.1547 -23.7367,45.7511 -0.5603,0.5965 -15.5855,-27.0035 -33.3893,-61.3333 -17.8037,-34.3298 -34.9049,-67.2178 -38.0026,-73.08448 -3.0977,-5.86667 -11.7968,-22.66667 -19.3313,-37.33333 -7.5345,-14.66605 -15.6284,-30.26605 -17.9864,-34.66605 -2.3581,-4.4 -8.0477,-15.35 -12.6436,-24.33333 l -8.3562,-16.33334 h -31.83687 -31.8368 v 191.35623 191.3562 l 33.6667,-0.3562 33.66657,-0.3563 z m 440.6667,32.2241 c 5.1333,-2.4049 13.1188,-6.8328 17.7456,-9.8397 l 8.4122,-5.4671 4.2527,5.208 c 2.339,2.8644 6.0535,7.184 8.2544,9.599 l 4.0017,4.391 14.8879,-0.391 14.8878,-0.391 -14.5545,-18.4506 c -8.005,-10.1479 -14.5545,-18.9927 -14.5545,-19.6551 0,-0.6625 2.1328,-3.9986 4.7395,-7.4136 5.0599,-6.6288 18.7204,-33.4652 17.6034,-34.5822 -0.3675,-0.3675 -5.5643,-2.7331 -11.5485,-5.2569 l -10.8804,-4.5888 -1.3261,3.6403 c -3.4597,9.4981 -4.7039,12.2107 -9.1487,19.9459 -2.6249,4.568 -5.1763,8.168 -5.6698,8 -0.7153,-0.2436 -18.0979,-22.238 -36.3876,-46.0416 -1.8634,-2.4251 -2.1435,-3.5657 -0.9718,-3.9563 0.9055,-0.3018 5.137,-3.1726 9.4032,-6.3796 8.4004,-6.3147 14.0776,-13.5337 16.9282,-21.5255 2.4358,-6.8288 2.385,-22.3706 -0.1005,-30.7402 -2.7712,-9.3315 -11.0891,-19.4696 -19.663,-23.96576 -6.0047,-3.14888 -8.5585,-3.66183 -18.3112,-3.67793 -13.7198,-0.0226 -21.485,3.3022 -29.5129,12.63659 -13.9812,16.2566 -14.4272,39.5332 -1.1583,60.4561 2.2025,3.473 3.9817,6.7437 3.9539,7.2682 -0.028,0.5245 -3.2818,3.1966 -7.2311,5.9379 -15.427,10.7082 -24.6509,27.2955 -25.7331,46.2757 -1.345,23.589 7.8563,43.5167 25.5008,55.2285 10.4905,6.9632 18.009,8.8601 33.514,8.4559 11.8822,-0.3098 14.3491,-0.8236 22.6667,-4.7202 z m -36.3799,-20.5665 c -5.955,-1.9081 -15.7633,-10.786 -19.3195,-17.4866 -4.1545,-7.8283 -4.1579,-24.5075 -0.01,-32.3291 2.6577,-5.0075 19.4137,-21.8419 21.74,-21.8419 0.54,0 8.0537,9.15 16.697,20.3333 8.6433,11.1834 18.3147,23.5523 21.492,27.4865 3.1773,3.9343 5.7769,7.6332 5.7769,8.2198 0,1.9679 -13.4715,10.9805 -21.1077,14.1214 -8.1177,3.3388 -17.744,3.9089 -25.2722,1.4966 z m 5.2981,-109.3243 c -8.89,-12.9951 -10.5897,-21.8159 -5.7373,-29.7733 2.6346,-4.3206 9.9299,-8.56 14.7301,-8.56 5.2312,0 12.0049,3.7975 14.7215,8.2531 3.7879,6.213 3.6494,16.6125 -0.2992,22.4678 -2.5726,3.8149 -15.8057,13.2571 -18.6026,13.2736 -0.5148,0 -2.6804,-2.5445 -4.8125,-5.6612 z M 1989.7853,837.27814 V 815.94481 H 1451.1186 912.45193 v 20.44444 c 0,11.24445 0.4,20.84445 0.8889,21.33333 0.4889,0.48889 242.88887,0.88889 538.66667,0.88889 h 537.7778 z M 1584.4519,807.4491 c 0,-0.27264 -22.2892,-21.39289 -49.5317,-46.93389 -27.2424,-25.54099 -48.9033,-46.64762 -48.1354,-46.9036 0.768,-0.25599 5.2073,-0.88574 9.8651,-1.39945 l 8.4687,-0.93402 33.3885,-78 c 30.5873,-71.45584 33.1532,-78.03338 30.5823,-78.39788 -1.5435,-0.21883 -29.1683,2.33212 -61.3886,5.66877 -32.2202,3.33665 -60.9822,6.06526 -63.9156,6.06357 -2.9333,-0.002 -32.0333,-5.43245 -64.6666,-12.06836 -76.091,-15.47289 -144.8013,-29.40895 -175.669,-35.62975 l -24.3357,-4.9044 -3.5403,3.54032 -3.5403,3.54031 6.5426,7.40367 c 5.8306,6.59785 32.4111,31.04424 105.107,96.66815 12.4104,11.20308 31.6192,28.56216 42.6861,38.57575 11.067,10.01358 38.0879,34.40652 60.0464,54.20652 21.9585,19.8 53.3225,48.15 69.6977,63 l 29.7732,27 h 49.2828 c 27.1055,0 49.2828,-0.22307 49.2828,-0.49571 z m 69.3333,-18.83763 c 0,-17.72397 -0.046,-18.00278 -3,-18.18157 l -3,-0.18158 3.0361,-0.58254 c 3.0098,-0.57752 3.0328,-0.74524 2.6666,-19.43211 l -0.3693,-18.84957 -7.3334,-1.47929 c -4.0333,-0.81361 -8.9994,-1.90293 -11.0358,-2.42071 l -3.7025,-0.94142 0.3692,19.70106 0.3691,19.70107 8,1.60579 8,1.60579 -8.5397,-0.76066 -8.5396,-0.76066 0.7233,9.15487 c 0.3978,5.03518 0.2329,10.35487 -0.3666,11.82153 -0.6882,1.68381 -1.1245,-1.77777 -1.1836,-9.3919 l -0.094,-12.05857 -13,-2.19839 c -11.8561,-2.00496 -12.2046,-2.14284 -3.961,-1.56698 4.9714,0.34728 10.8214,0.98792 13,1.42363 l 3.961,0.79221 v -19.41015 c 0,-17.34393 -0.2483,-19.48085 -2.3333,-20.07436 -1.2833,-0.36532 -7.1333,-1.65717 -13,-2.87078 -5.8667,-1.21361 -11.7167,-2.49558 -13,-2.84882 -2.1498,-0.59174 -2.3333,0.99037 -2.3333,20.11426 0,15.66019 0.4092,20.78237 1.6666,20.86178 1.3334,0.0842 1.3334,0.23977 0,0.77778 -1.2383,0.49968 -1.6666,6.29786 -1.6666,22.5614 v 21.88889 h 27.3335 27.3333 z m 222.6667,3.25309 v -10.74692 l -11.6666,0.21445 c -6.4167,0.11795 -12.5667,-0.12281 -13.6667,-0.53503 -1.1,-0.41222 -4.1,-0.97659 -6.6667,-1.25415 -4.4401,-0.48017 -4.3954,-0.51503 0.9213,-0.71805 3.0734,-0.11736 5.9911,-0.86567 6.4839,-1.6629 0.6451,-1.04379 1.3015,-1.04379 2.3453,0 0.7972,0.79723 6.0653,1.44951 11.7069,1.44951 11.6431,0 11.876,-0.21009 11.876,-10.7153 0,-6.30774 -0.1264,-6.51618 -4.3334,-7.14822 -9.0948,-1.36638 -33.9847,-4.71693 -41.1269,-5.5363 l -7.4602,-0.85585 -0.8747,10.34842 c -0.4812,5.69163 -0.6045,10.61871 -0.2741,10.94906 0.3303,0.33036 2.581,1.06968 5.0016,1.64294 l 4.401,1.04229 -5,0.13648 -5,0.13648 v 11.29102 11.29102 l 15.6667,0.42227 c 8.6166,0.23225 20.6166,0.55129 26.6666,0.70898 l 11,0.28671 z m -113.1956,1.74691 c -0.7092,-1.28333 -7.9304,-8.81378 -16.0469,-16.73433 -8.1166,-7.92055 -14.7575,-14.97055 -14.7575,-15.66667 0,-0.74423 8.5144,-1.26566 20.6667,-1.26566 11.3667,0 20.6667,-0.278 20.6667,-0.61777 0,-0.33977 4.8356,-28.98977 10.7459,-63.66666 5.9102,-34.6769 11.2972,-66.31196 11.9709,-70.30014 0.6738,-3.98818 1.0469,-7.4295 0.829,-7.64737 -0.5946,-0.59463 -159.8287,-0.59628 -160.4234,-0.002 -0.4538,0.45386 23.2012,32.7842 62.5592,85.50219 7.0908,9.49772 12.6834,17.47751 12.428,17.73286 -0.2553,0.25536 -4.4886,-0.23652 -9.4072,-1.09306 l -8.9429,-1.55734 -33.7865,-45.50886 c -61.0362,-82.21321 -71.9633,-96.744 -72.7882,-96.79339 -0.4483,-0.0268 -2.7709,4.60121 -5.1613,10.28454 -5.2605,12.50704 -6.2273,15.54091 -3.3992,10.66667 1.1701,-2.01667 2.5583,-3.647 3.0849,-3.62295 1.0766,0.0491 14.9574,20.1472 14.9574,21.65687 0,1.08309 5.0959,8.53925 56.4408,82.58253 l 18.2259,26.28312 v 35.16132 c 0,19.33873 0.4,35.56133 0.8889,36.05022 0.4889,0.48889 21.51,0.88889 46.7136,0.88889 43.2449,0 45.752,-0.13136 44.5352,-2.33334 z M 974.45193,781.41081 c 3.6667,-3.5156 32.76667,-29.71772 64.66667,-58.22694 31.9,-28.50921 58.6524,-52.45086 59.4497,-53.20367 4.2183,-3.98251 75.1973,-67.5409 78.8563,-70.61217 2.612,-2.19242 4.9725,-3.21327 6,-2.59486 1.4294,0.86028 52.3919,46.35028 54.3606,48.52325 0.3667,0.4047 14.4667,13.01157 31.3334,28.01525 16.8666,15.00368 31.2666,27.93363 32,28.73321 0.7333,0.79958 12.7333,11.59525 26.6666,23.99038 13.9334,12.39514 34.3334,30.67256 45.3334,40.61651 23.7323,21.45389 25.0666,22.435 29.389,21.60872 4.6566,-0.89017 9.3056,-6.90462 6.9909,-9.04427 -0.9423,-0.87105 -11.3133,-10.19962 -23.0466,-20.73014 -28.1379,-25.25339 -56.419,-50.7779 -90.6667,-81.82931 -15.4,-13.96273 -43,-38.85391 -61.3333,-55.31371 -18.3333,-16.45981 -36.9333,-33.26381 -41.3333,-37.34222 -17.0835,-15.83491 -30.3306,-27.38937 -31.4016,-27.38937 -0.6158,0 -36.6828,33.6 -80.1487,74.66667 -110.28407,104.19637 -127.43227,120.38303 -147.45397,139.18591 -9.6745,9.08558 -17.3646,16.88558 -17.0891,17.33333 0.2755,0.44775 11.8092,0.63214 25.6305,0.40976 l 25.1295,-0.40434 z m 187.50217,-1.79934 c 0.093,-4.58333 0.354,-14.91864 0.5803,-22.96735 0.3813,-13.55567 -0.6672,-19.06476 -3.3165,-17.42736 -0.5125,0.31676 -12.2946,0.96828 -26.1823,1.44783 -13.8877,0.47955 -25.7004,1.14919 -26.2504,1.48808 -0.55,0.3389 -1,10.78077 -1,23.20416 v 22.58798 h 28 28 z m 59.5456,-13.66666 c 0.2097,-11.73334 0.083,-22.53334 -0.2824,-24 -0.6334,-2.54506 -1.9074,-2.68092 -27.9361,-2.97913 l -27.2724,-0.31245 -0.7611,9.64579 c -0.4187,5.30518 -0.9289,16.4071 -1.1339,24.67092 l -0.3726,15.02514 28.6887,-0.35847 28.6887,-0.35847 z m 731.4163,20.33333 c -0.9455,-1.53478 -16.0068,-18.77389 -69.0201,-79 -10.9736,-12.46667 -30.0354,-34.17981 -42.3595,-48.25142 -12.3241,-14.07162 -22.9665,-25.93033 -23.6499,-26.3527 -1.3276,-0.82046 -2.0843,1.15763 -3.2917,8.60412 -0.7414,4.57262 0.1585,5.67432 44.6567,54.66667 24.9774,27.5 53.9155,59.44838 64.3069,70.9964 18.834,20.93024 18.9116,20.99641 24.6389,21 4.2555,0.003 5.4791,-0.42858 4.7187,-1.66307 z m -805.4641,-48.9931 14.3333,-0.007 v -19.83323 c 0,-10.90834 -0.3774,-21.72051 -0.8387,-24.02706 l -0.8388,-4.19373 -26.8279,0.36039 -26.8279,0.3604 -0.3812,21.33333 c -0.5344,29.91271 -1.587,27.9101 14.1225,26.86976 7.109,-0.47078 19.3754,-0.85907 27.2587,-0.86286 z m 73.3675,-2.58466 c 0.5688,-0.52646 0.8688,-10.81183 0.6666,-22.85638 l -0.3674,-21.89919 -28.3334,-0.35985 -28.3333,-0.35985 v 19.85985 c 0,10.92291 0.3867,21.79336 0.8593,24.15655 l 0.8594,4.2967 26.8073,-0.94032 c 14.744,-0.51718 27.2727,-1.37106 27.8415,-1.89751 z M 979.17083,699.04231 c 23.35057,-22.35896 79.02767,-75.76385 84.20057,-80.76417 2.2484,-2.17343 2.4138,-5.89692 2.4138,-54.33333 v -52 h -55.782 -55.78197 l -0.8832,69 c -1.1756,91.83848 -1.1172,141.66666 0.1662,141.66666 0.5787,0 12.1287,-10.60612 25.6666,-23.56916 z m -11.689,926.31659 8.3034,-13.8993 19.6226,-13.4467 c 10.79247,-7.3957 20.28867,-14.1127 21.10277,-14.9268 1.0846,-1.0846 0.3627,-2.2757 -2.7013,-4.4575 l -4.1814,-2.9775 -7.588,5.5049 c -15.45957,11.2153 -23.14147,16.3464 -23.67457,15.8133 -0.3013,-0.3013 0.6325,-7.7051 2.0751,-16.4528 1.4426,-8.7478 2.6353,-16.8961 2.6505,-18.1075 0.025,-1.9577 -7.9073,-8.307 -9.0056,-7.2088 -0.2401,0.2402 -1.9073,11.8663 -3.7049,25.8359 l -3.2682,25.3993 -8.9151,14.3375 c -4.9033,7.8856 -8.287,14.5468 -7.5192,14.8027 0.7677,0.256 2.5309,1.3234 3.9183,2.3721 1.3873,1.0487 2.9858,1.7726 3.5523,1.6086 0.5665,-0.164 4.7665,-6.5528 9.3333,-14.1974 z m 945.36387,3.1502 c 8.9729,-5.938 12.8231,-19.8799 8.408,-30.4466 -1.3311,-3.1858 -25.8707,-43.7968 -30.967,-51.2476 -0.5843,-0.8544 -8.5014,4.3561 -8.5014,5.595 0,0.673 6.0748,11.0557 13.4997,23.0728 7.4248,12.0171 14.2532,24.041 15.1741,26.7197 4.0812,11.8715 -6.6035,22.4643 -17.4446,17.2946 -5.3356,-2.5444 -8.1114,-6.2545 -23.8959,-31.9389 -6.6,-10.7394 -12.5074,-19.5458 -13.1275,-19.5698 -0.6201,-0.024 -2.8451,1.1795 -4.9444,2.6743 l -3.8169,2.7179 9.0161,14.2821 c 4.9589,7.8552 11.7876,18.7822 15.1749,24.2822 3.3873,5.5 7.9374,11.6974 10.1113,13.7721 8.5368,8.1471 21.478,9.3011 31.3136,2.7922 z m -975.65377,-16.0428 c 4.5556,-26.9308 4.1516,-25.8549 9.7087,-25.8549 7.0777,0 13.5738,-3.9439 18.5513,-11.2628 5.3133,-7.8129 5.9491,-17.1414 1.6431,-24.1086 -2.1187,-3.4283 -16.7563,-14.6236 -27.5028,-21.0352 -0.9411,-0.5615 -4.7481,3.8161 -9.9271,11.4146 -4.6203,6.779 -14.6411,21.2766 -22.2684,32.2169 -7.6272,10.9403 -14.1219,20.554 -14.4326,21.3636 -0.6453,1.6816 6.9262,6.5827 8.5852,5.5573 0.6006,-0.3712 4.9494,-6.3837 9.664,-13.3612 4.7146,-6.9775 9.0304,-12.7085 9.5906,-12.7355 2.4624,-0.1186 10.2832,6.1691 10.2982,8.2794 0.01,1.2806 -1.4804,9.3806 -3.31,18 -1.8296,8.6193 -3.3296,16.0999 -3.3333,16.6235 -0.01,1.1108 9.628,7.8576 10.2846,7.201 0.2437,-0.2437 1.3455,-5.7778 2.4485,-12.2981 z m 5.9267,-37.3996 c -4.9782,-1.9078 -15.8403,-10.3094 -15.0603,-11.6487 2.8754,-4.9373 11.2585,-16.7717 12.3648,-17.4554 2.0262,-1.2523 17.3401,9.7506 18.7567,13.4765 1.3898,3.6554 -0.8338,10.6109 -4.3151,13.4977 -2.4106,1.9991 -8.9795,3.1902 -11.7461,2.1299 z m 1015.38847,22.3718 c 6.0053,-2.7278 12.1798,-9.3094 13.4385,-14.3247 1.1513,-4.5871 -0.085,-17.6274 -1.8379,-19.3799 -1.0449,-1.0449 -2.5972,-0.6337 -5.553,1.4711 -3.4917,2.4862 -4.1028,3.7747 -4.1028,8.6507 0,15.7094 -15.7748,18.3934 -26.9335,4.5826 -8.1736,-10.1162 -15.7016,-22.0024 -16.5169,-26.0791 -1.1844,-5.9218 2.3037,-12.9492 7.4946,-15.0994 3.7532,-1.5546 5.1816,-1.5199 10.0903,0.2453 5.318,1.9123 5.9801,1.8845 9.4586,-0.3974 2.0571,-1.3494 3.7403,-3.2132 3.7403,-4.1416 0,-0.9284 -3.3,-3.3816 -7.3334,-5.4515 -5.8383,-2.9963 -8.6178,-3.6484 -13.6339,-3.1989 -18.0964,1.6218 -27.1264,20.7389 -17.8482,37.786 5.2613,9.6667 19.9046,29.0129 24.3631,32.1877 7.9711,5.6759 17.0981,6.8176 25.1742,3.1491 z M 898.45193,1564.9984 c 9.5333,-11.792 20.7833,-25.6074 25,-30.701 4.2167,-5.0936 7.6667,-9.7137 7.6667,-10.2669 0,-1.041 -3.4961,-4.3515 -6.2258,-5.8951 -0.9503,-0.5375 -6.9375,5.7276 -15.3333,16.045 -7.5759,9.3097 -15.6546,19.0395 -17.9528,21.6217 l -4.1785,4.695 1.2817,-7.9428 c 0.7049,-4.3686 3.0352,-17.475 5.1785,-29.1255 4.7548,-25.8465 4.7755,-27.4493 0.3942,-30.6424 -4.1247,-3.0061 -0.5251,-6.5879 -30.51696,30.3659 -24.78108,30.5334 -24.89771,30.7542 -18.49067,35.0083 2.4962,1.6574 3.78274,0.4108 19.14741,-18.5528 9.05928,-11.1814 17.04652,-20.9297 17.74942,-21.663 1.7046,-1.7783 0.3958,8.2313 -4.4456,34 -2.1355,11.3666 -4.1791,22.3079 -4.5413,24.3139 -0.49946,2.7661 0.21491,4.4571 2.95728,7 1.98872,1.844 3.92192,3.3138 4.29612,3.2662 0.3741,-0.048 8.4803,-9.7346 18.0136,-21.5265 z m 1095.03667,7.5374 c 1.6298,-1.1416 2.9633,-2.7036 2.9633,-3.4712 0,-1.1445 -6.804,-9.9041 -19.6568,-25.3069 -1.6159,-1.9364 -0.6828,-3.1203 8.1444,-10.3333 5.4832,-4.4805 10.5451,-8.1463 11.2487,-8.1463 0.7036,0 5.9691,5.7 11.7012,12.6667 5.7321,6.9666 10.7536,12.6637 11.1589,12.66 0.4053,0 2.4479,-1.3757 4.5391,-3.0491 l 3.8021,-3.0426 -9.8587,-11.9508 c -33.2834,-40.3465 -41.3961,-49.9502 -42.1904,-49.9442 -0.4887,0 -2.5629,1.3536 -4.6094,3 l -3.721,2.9933 10.721,12.8757 c 5.8965,7.0816 10.6892,13.3816 10.6504,14 -0.057,0.9049 -19.466,17.1243 -20.4921,17.1243 -0.2379,0 -20.6341,-24.3561 -21.592,-25.784 -0.551,-0.8214 -8.5632,5.6328 -8.2008,6.606 0.9408,2.5266 49.8662,61.1174 51.0588,61.1456 0.7534,0.018 2.7034,-0.9016 4.3333,-2.0432 z M 840.09807,1531.4611 c 6.41626,-3.318 31.85658,-30.6361 33.6825,-36.1687 0.90096,-2.73 1.38182,-8.5066 1.06859,-12.8371 -0.48663,-6.7275 -1.21853,-8.5431 -5.02836,-12.4739 -7.99274,-8.2464 -15.1393,-10.2265 -26.03552,-7.2138 -7.08488,1.9589 -31.24071,25.461 -36.01356,35.0388 -7.22756,14.5038 -1.89963,29.1772 12.87377,35.4551 4.01795,1.7074 14.55515,0.7322 19.45258,-1.8004 z m -16.54115,-10.7933 c -4.95765,-2.1566 -7.10498,-5.5989 -7.10498,-11.3897 0,-5.4768 1.61326,-8.3244 10.4178,-18.3889 14.89961,-17.0317 23.90524,-21.0939 31.88266,-14.3813 5.1116,4.3011 6.47659,9.6628 3.98071,15.6363 -2.48948,5.9581 -21.08361,25.5951 -26.80805,28.3115 -5.44287,2.5828 -6.86202,2.6072 -12.36814,0.2121 z m 1236.93458,-5.4319 3.1712,-3.3755 -17.2528,-17.2911 c -9.4891,-9.5102 -16.7769,-17.2912 -16.1952,-17.2912 0.5817,0 8.6566,3.3627 17.9442,7.4727 17.1621,7.5946 19.0013,7.838 22.1006,2.9245 1.4106,-2.2362 -0.7489,-8.1643 -9.3048,-25.5435 -2.4765,-5.0304 -4.5028,-9.781 -4.5028,-10.5567 0,-0.7758 7.446,5.89 16.5465,14.8129 9.1006,8.9229 17.096,16.2234 17.7676,16.2234 0.6716,0 2.6757,-1.5664 4.4535,-3.4809 l 3.2324,-3.4809 -28.6666,-27.8318 c -15.7667,-15.3075 -29.1705,-27.8411 -29.7863,-27.8524 -1.2885,-0.024 -6.1031,5.4608 -6.1694,7.0278 -0.024,0.5767 5.0724,11.9099 11.3263,25.1849 6.2538,13.2751 11.2038,24.2794 11,24.4541 -0.2039,0.1747 -11.7706,-4.6645 -25.704,-10.7537 l -25.3333,-11.0713 -3,2.8012 c -1.65,1.5407 -3.0242,3.4466 -3.0537,4.2355 -0.052,1.3922 55.9497,56.6562 57.4879,56.7305 0.4222,0.02 2.1946,-1.4819 3.9387,-3.3385 z M 800.9459,1490.4488 c 12.58702,-8.3373 14.88825,-21.6294 6.17707,-35.6793 -5.63761,-9.0927 -5.79268,-14.1794 -0.55992,-18.3664 2.13889,-1.7115 5.29889,-3.1147 7.02222,-3.1184 4.67214,-0.01 11.82843,7.8992 13.79276,15.2436 1.66744,6.2344 1.70051,6.2624 6.36488,5.3873 2.5788,-0.4838 5.14329,-1.1605 5.69888,-1.5039 3.71126,-2.2937 -2.91092,-17.7026 -10.57818,-24.6139 -9.52221,-8.5834 -21.58939,-8.0086 -31.07834,1.4803 -9.32543,9.3254 -9.76624,19.7232 -1.36199,32.1261 5.247,7.7435 5.43785,14.5719 0.51552,18.4438 -4.38578,3.4498 -7.95057,3.4869 -13.44004,0.1399 -4.72244,-2.8795 -11.04682,-13.9472 -11.04682,-19.3321 0,-3.1293 -0.45486,-3.3777 -6.18572,-3.3777 h -6.18572 l 0.79524,6.7146 c 0.88874,7.504 6.08372,18.0307 11.40196,23.104 9.1424,8.7214 18.84857,9.8563 28.6682,3.3521 z m -24.8105,-62.5618 c 22.95192,-34.5538 23.0105,-34.6611 20.78697,-38.0546 -2.61514,-3.9912 -3.35207,-3.8918 -20.33733,2.7422 -13.97014,5.4564 -55.90379,21.4123 -59.1331,22.5003 -3.0225,1.0184 -2.89146,2.0707 0.82306,6.6097 l 3.0605,3.7399 8.86339,-3.3362 8.86339,-3.3362 8.02817,9.8249 c 4.41548,5.4036 8.02816,10.1956 8.02816,10.6489 0,0.4532 -2.1,3.9424 -4.66667,7.7537 -2.56667,3.8113 -4.66667,7.4247 -4.66667,8.0299 0,1.8013 4.55885,7.5177 6,7.5235 0.73334,0 11.69089,-15.5877 24.35013,-34.646 z m -19.5593,-5.1273 c -5.77115,-6.893 -6.49303,-8.7737 -3.79083,-9.8764 0.91667,-0.3741 8.12847,-3.4061 16.02623,-6.7378 7.89775,-3.3317 13.89775,-5.3079 13.33333,-4.3916 -2.49231,4.0463 -19.2691,27.5242 -19.66818,27.5242 -0.24368,0 -2.89893,-2.9333 -5.90055,-6.5184 z m 1360.7609,29.7942 c 10.3852,-6.0861 14.1148,-19.8962 8.6265,-31.9425 -3.2164,-7.0596 -27.3812,-28.1317 -36.7492,-32.0459 -21.6869,-9.0614 -41.6077,12.353 -31.2996,33.6465 3.0799,6.3625 25.7098,26.3352 35.2039,31.0706 7.6162,3.7987 16.9734,3.5172 24.2184,-0.7287 z m -17.6023,-8.8043 c -5.0646,-1.3352 -25.5889,-17.8013 -29.6161,-23.7602 -4.2687,-6.3162 -3.9441,-12.639 0.8974,-17.4805 5.2363,-5.2363 12.2609,-5.3126 19.8502,-0.2155 11.2447,7.552 24.1022,20.2279 25.4429,25.0835 2.956,10.7058 -5.6865,19.2432 -16.5744,16.3727 z m 50.6416,-29.4348 c 1.1416,-1.6299 2.0756,-3.6108 2.0756,-4.4021 0,-1.1153 -16.674,-13.7639 -25.7517,-19.5348 -0.9019,-0.5733 -0.049,-2.8727 2.3492,-6.3333 2.0709,-2.9882 4.0566,-5.4332 4.4127,-5.4332 0.3562,0 8.7499,1.8116 18.6529,4.0258 17.1086,3.8252 18.0977,3.9082 19.8603,1.6666 3.0306,-3.8541 4.7376,-7.2092 4.0286,-7.9182 -0.3652,-0.3652 -8.8138,-2.2384 -18.7747,-4.1626 -17.5875,-3.3975 -18.1108,-3.5964 -18.118,-6.8884 -0.021,-9.6955 -7.5014,-20.6231 -16.4127,-23.9771 -5.7425,-2.1614 -14.4641,-1.6766 -18.9395,1.0526 -3.7546,2.2897 -21.3071,25.4751 -21.3071,28.145 0,1.5 62.0694,46.5694 64.2578,46.6583 0.875,0.036 2.525,-1.2688 3.6666,-2.8986 z m -44.1845,-38.6378 -9.5935,-6.7979 4.1269,-6.1338 c 6.7844,-10.084 9.1254,-12.1339 13.8568,-12.1339 5.2009,0 11.8646,5.1411 13.1135,10.1171 0.9075,3.6159 -2.615,10.8461 -8.8417,18.148 l -3.0685,3.5983 z m -1354.40653,6.2725 c 28.22217,-19.2154 26.3796,-17.3025 21.66667,-22.494 l -3,-3.3047 -26,6.3819 c -14.3,3.51 -26.20362,6.21 -26.45248,6 -0.24887,-0.21 6.09516,-9.8782 14.09784,-21.4849 8.00267,-11.6066 14.98123,-21.8361 15.50789,-22.732 1.1292,-1.921 -2.75417,-8.371 -5.03992,-8.371 -0.86899,0 -6.64998,3.4756 -12.84666,7.7237 -6.19667,4.248 -20.71667,14.1855 -32.26667,22.0834 -11.55,7.8979 -21,14.6466 -21,14.997 0,0.3505 1.2878,2.379 2.86178,4.5079 l 2.86178,3.8708 19.47155,-13.1415 c 10.70936,-7.2278 19.67379,-12.9417 19.92097,-12.6975 0.24718,0.2441 -4.43039,7.3681 -10.3946,15.8311 l -10.84402,15.3872 2.1032,4.0671 c 1.7871,3.4559 2.648,3.9428 5.72794,3.2399 1.9936,-0.455 10.50701,-2.5294 18.91868,-4.6098 8.41167,-2.0804 15.48987,-3.5866 15.72933,-3.3472 0.48427,0.4843 -6.01036,5.2449 -25.35661,18.5865 -7.15,4.9307 -13,9.26 -13,9.6205 0,0.3605 1.2757,2.381 2.83488,4.4899 l 2.83489,3.8344 12.16511,-8.3185 c 6.69082,-4.5752 19.96512,-13.6293 29.49845,-20.1202 z m 1443.04323,-32.6444 11.1839,-17.9636 -3.7802,-3.0251 c -2.0792,-1.6638 -4.3936,-3.028 -5.1432,-3.0317 -0.7496,0 -4.9496,5.7708 -9.3333,12.8321 -4.3838,7.0613 -8.3615,13.4513 -8.8395,14.2001 -1.0108,1.5835 -19.7976,-9.5508 -19.7976,-11.7334 0,-0.778 3,-6.1654 6.6667,-11.9721 3.6666,-5.8066 6.6666,-11.2027 6.6666,-11.9913 0,-0.7885 -1.8686,-2.5375 -4.1524,-3.8866 -3.4436,-2.0342 -4.3531,-2.1402 -5.328,-0.6208 -0.6466,1.0076 -4.0267,6.4821 -7.5113,12.1654 -3.4846,5.6833 -6.7523,10.3333 -7.2616,10.3333 -1.3529,0 -18.4133,-10.8337 -18.4133,-11.6929 0,-0.4005 3.6,-6.5865 8,-13.7466 4.4,-7.16 8,-13.6244 8,-14.3652 0,-1.5721 -7.8624,-7.444 -8.7624,-6.544 -3.0793,3.0793 -23.1525,37.6235 -22.3243,38.4182 3.4665,3.3264 65.4186,41.1125 67.0163,40.8748 1.0613,-0.1578 6.9624,-8.3706 13.1136,-18.2506 z M 587.1186,1014.6538 v -6.6244 l -15.21854,-0.3756 -15.21854,-0.3757 13.37054,-17.99996 c 15.22516,-20.49676 17.07802,-24.08097 17.03726,-32.95718 -0.0917,-19.9722 -19.00847,-31.54624 -35.35484,-21.63153 -4.89029,2.96615 -9.74649,11.17694 -10.24873,17.32839 -0.38718,4.74228 -0.46775,4.70051 7.96618,4.12994 1.75702,-0.11886 3,-1.0741 3,-2.30552 0,-1.15641 1.75385,-3.85641 3.89744,-6 7.92583,-7.92582 18.76923,-3.05194 18.76923,8.43638 0,5.33502 -1.35425,7.61103 -17.29136,29.06061 -16.40796,22.08327 -17.29351,23.59577 -17.33334,29.60557 l -0.042,6.3333 h 23.33334 23.33333 z m 43.10508,4.8056 c 11.76863,-4.9172 14.6956,-14.9422 14.01831,-48.01326 -0.43738,-21.35613 -0.67985,-23.20585 -3.74474,-28.56721 -7.49794,-13.11605 -23.18934,-15.75851 -34.92715,-5.8818 -7.08771,5.96391 -7.78483,9.4454 -7.78483,38.87787 0,29.9264 1.02545,34.8178 8.49341,40.5139 6.69205,5.1043 16.16902,6.3195 23.945,3.0705 z m -14.68458,-11.5239 c -1.60206,-0.6455 -3.67834,-2.5575 -4.61395,-4.2488 -1.96274,-3.5482 -3.29512,-37.61347 -1.84848,-47.26039 1.72605,-11.51009 11.05412,-16.06727 18.96758,-9.2665 l 3.74102,3.215 0.41644,24.02383 c 0.4576,26.39766 -0.54625,31.06086 -7.23377,33.60346 -3.97585,1.5116 -5.53923,1.5006 -9.42884,-0.067 z m 1618.2462,-27.99069 v -41.33334 h -5.7779 c -4.6059,0 -6.7902,0.87896 -10.769,4.33334 -4.5557,3.95531 -4.9531,4.84564 -4.5554,10.206 l 0.4356,5.87267 4.1925,-3.53934 c 2.3058,-1.94663 4.5558,-3.53933 5,-3.53933 0.4441,0 0.8075,15.6 0.8075,34.66666 v 34.66663 h 5.3333 5.3334 z m 49.3226,26.33329 c 15.0415,-39.99092 21.4482,-59.12251 21.0752,-62.93428 l -0.3978,-4.06568 -21.6667,-0.36636 -21.6667,-0.36636 v 12.03302 12.03303 h 5.3334 5.3333 v -6 -6 h 10.1427 c 9.1151,0 10.051,0.23639 9.2387,2.33334 -5.5229,14.25703 -24.7147,66.83199 -24.7147,67.70479 0,0.3457 2.6282,0.6285 5.8404,0.6285 h 5.8404 z m -87.4943,-291.81106 c 25.7611,-11.07944 47.857,-20.68381 49.1021,-21.34303 2.1139,-1.11921 2.0966,-1.57328 -0.2617,-6.85557 -1.389,-3.11133 -3.3078,-5.79314 -4.2638,-5.95957 -0.956,-0.16643 -16.7383,6.20558 -35.0716,14.16001 -18.3333,7.95443 -33.5431,14.28081 -33.7996,14.05861 -0.2564,-0.22221 6.1913,-8.99421 14.3283,-19.49335 8.1369,-10.49913 19.8967,-25.68228 26.1328,-33.74032 6.2362,-8.05805 11.3385,-15.68769 11.3385,-16.95477 0,-3.60536 -4.376,-11.87519 -5.9329,-11.21202 -0.7702,0.32809 -20.3004,8.7854 -43.4004,18.79403 -23.1,10.00863 -44.4,19.14864 -47.3334,20.31114 -2.9333,1.16249 -5.8755,2.59555 -6.5381,3.18456 -1.3403,1.19139 2.7551,13.19471 4.5019,13.19471 0.5921,0 16.2897,-6.55272 34.8837,-14.5616 18.5939,-8.00889 34.0256,-14.34307 34.2927,-14.07596 0.2672,0.26711 -4.5779,6.96983 -10.7667,14.89494 -6.1889,7.92511 -15.3846,19.80929 -20.435,26.40929 -5.0504,6.6 -11.839,15.43726 -15.0858,19.63835 l -5.9033,7.63834 2.3023,6.02832 c 1.2662,3.31558 2.9253,6.02832 3.6869,6.02832 0.7616,0 22.462,-9.06499 48.2231,-20.14443 z M 724.24725,667.11692 c 1.64634,-3.38868 2.8159,-6.29491 2.59902,-6.45831 -0.21688,-0.1634 -13.59433,-7.03471 -29.72767,-15.26959 -16.13333,-8.23488 -29.78885,-15.41416 -30.34559,-15.95395 -0.55675,-0.5398 7.54325,0.039 18,1.28621 10.45674,1.24721 23.21226,2.66556 28.3456,3.15189 l 9.33333,0.88423 2.33333,-4.18102 c 1.28334,-2.29956 2.33334,-5.02001 2.33334,-6.04546 0,-1.02544 -8.1,-10.84556 -18,-21.82249 C 699.2186,591.7315 691.1186,582.3772 691.1186,581.9211 c 0,-0.45611 13.43165,6.11264 29.8481,14.59721 16.41646,8.48457 30.20635,15.4265 30.64421,15.4265 0.43786,0 2.25807,-2.88504 4.04491,-6.4112 l 3.2488,-6.4112 -10.89301,-5.63338 c -51.42406,-26.59426 -88.79071,-45.54422 -89.80678,-45.54422 -0.67184,0 -2.50603,2.64392 -4.076,5.87538 l -2.85448,5.87538 25.88472,28.45795 c 14.23659,15.65188 25.90155,28.89295 25.92213,29.42462 0.0206,0.53167 -1.6126,0.6764 -3.62926,0.32164 -2.01667,-0.35477 -17.46667,-2.14088 -34.33334,-3.96913 -16.86666,-1.82825 -32.59485,-3.64608 -34.95153,-4.03963 -4.03355,-0.67356 -4.48033,-0.32978 -7.6176,5.86132 l -3.33275,6.57685 43.61761,22.3189 c 23.98968,12.2754 46.01761,23.7155 48.95094,25.42245 7.55126,4.39418 9.06663,4.03503 12.46198,-2.95362 z M 2142.4519,635.80488 c 37.9098,-19.48048 48.0589,-29.03472 49.6657,-46.755 2.2533,-24.85017 -22.7183,-41.34626 -47.4048,-31.31524 -8.797,3.57452 -38.3598,20.78265 -44.3209,25.79864 -7.0815,5.95869 -10.9581,14.26786 -11.6104,24.8858 -0.5248,8.54324 -0.1878,10.28209 3.2672,16.85906 2.9689,5.65146 5.479,8.31018 10.9449,11.59262 12.5028,7.50834 23.3424,7.21553 39.4583,-1.06588 z m -28.1326,-11.09685 c -8.4916,-3.69665 -12.1072,-14.97339 -7.747,-24.16197 2.5126,-5.29477 6.7224,-8.66388 22.3876,-17.91658 16.3337,-9.6476 21.9079,-11.95506 28.9615,-11.98872 15.8089,-0.0755 23.8823,17.15462 13.7053,29.2493 -3.7609,4.46965 -23.4706,17.08216 -35.8363,22.9322 -8.7161,4.12344 -15.0525,4.67996 -21.4711,1.88577 z m -32.4134,-53.09656 c 32.4773,-22.53832 72.5026,-50.51217 73.0346,-51.04408 0.3025,-0.3025 -1.1367,-2.81633 -3.1982,-5.58629 -2.0615,-2.76996 -3.8938,-5.23491 -4.0718,-5.47765 -0.6268,-0.85514 -5.7,2.4875 -39.3,25.89408 -18.6552,12.99568 -37.3637,25.98459 -41.5743,28.86425 -4.2107,2.87965 -7.9203,5.66362 -8.2435,6.1866 -0.5414,0.87599 5.9732,12.13176 7.0342,12.1535 0.2575,0.005 7.6011,-4.94041 16.319,-10.99041 z M 782.55494,565.95494 c 15.55836,-9.11781 20.62739,-27.79881 12.00426,-44.23953 -3.67176,-7.0005 -7.16594,-11.90832 -7.83629,-11.0066 -0.23279,0.31313 -2.3992,3.13169 -4.81423,6.26345 l -4.39098,5.69413 2.13379,5.33286 c 2.86411,7.15811 2.68815,11.26279 -0.74466,17.37065 -2.94619,5.24203 -10.01175,9.27273 -16.14854,9.21229 -5.06926,-0.0499 -13.987,-4.87688 -26.79439,-14.50312 -22.49515,-16.90774 -28.50891,-26.25636 -24.05335,-37.39189 3.60572,-9.01159 13.33817,-13.91802 21.77438,-10.97715 3.77923,1.31745 4.32759,1.05986 8.75511,-4.1127 2.59784,-3.03499 4.52366,-6.1484 4.2796,-6.91868 -0.69367,-2.18926 -12.96031,-5.94502 -19.60103,-6.00138 -10.24985,-0.087 -16.11832,2.34495 -23.52045,9.74709 -7.26453,7.26452 -9.79211,13.18691 -9.80545,22.97521 -0.0103,7.55386 3.08759,17.10705 7.3667,22.71726 6.66024,8.73202 41.05462,34.73984 51.01963,38.57924 7.77683,2.99633 22.917,1.63007 30.3759,-2.74113 z M 2072.3908,512.61147 c 19.6358,-15.76666 36.2324,-28.64312 36.8813,-28.61435 0.6489,0.0288 4.4181,4.22877 8.3761,9.33333 3.9579,5.10456 7.462,9.28102 7.7869,9.28102 1.2665,0 10.9615,-7.39267 10.9884,-8.37885 0.034,-1.23686 -39.6327,-50.81116 -41.0204,-51.26664 -0.5232,-0.17169 -3.3314,1.70077 -6.2406,4.16103 l -5.2894,4.4732 7.6228,9.4345 c 4.1925,5.18898 7.6084,9.91651 7.5909,10.50564 -0.017,0.58912 -16.2106,13.97112 -35.9847,29.73779 -22.8255,18.19964 -35.7116,29.32415 -35.292,30.46736 0.9846,2.68219 6.4749,9.37409 7.7606,9.45887 0.6153,0.0406 17.1843,-12.82623 36.8201,-28.5929 z m -54.0863,-17.22226 c 3.4521,-1.03891 7.8134,-2.896 9.692,-4.12686 l 3.4155,-2.23795 -4.9038,-5.02196 c -4.8857,-5.00339 -4.9369,-5.0196 -13.8562,-4.38143 -8.2176,0.58797 -9.2972,0.35038 -13.1539,-2.8948 -5.0369,-4.23825 -7.6022,-11.18179 -6.3247,-17.11935 1.3428,-6.24178 8.4475,-15.34608 21.6926,-27.79821 16.0223,-15.06308 23.0913,-18.05615 32.9329,-13.94408 8.3636,3.49453 12.4591,15.19445 8.421,24.05701 -1.4276,3.1333 -1.1134,3.89836 3.5709,8.69553 6.1019,6.24897 7.3234,5.72434 11.2774,-4.84379 9.3572,-25.00925 -7.6157,-48.26486 -33.0483,-45.28142 -9.6863,1.13628 -15.9002,4.60355 -27.1526,15.15082 -31.3502,29.38553 -37.1701,39.26114 -33.1104,56.18386 4.4832,18.68804 22.3145,29.05 40.5476,23.56263 z M 846.7218,491.68325 c 2.41824,-2.34385 4.39681,-4.81609 4.39681,-5.49386 0,-0.67777 -6.57622,-8.26242 -14.61383,-16.85477 l -14.61383,-15.62245 10.4234,-10.13586 c 12.0808,-11.74755 15.17592,-17.30463 15.088,-27.08951 -0.1716,-19.09606 -17.49674,-36.62949 -36.28313,-36.71934 -4.43238,-0.0212 -9.73162,0.87365 -12.24961,2.06852 -4.86154,2.30695 -34.41767,29.50474 -34.41767,31.67142 0,0.73956 5.25,6.85629 11.66667,13.59275 6.41666,6.73645 20.06666,21.23178 30.33333,32.21183 29.54804,31.60122 34.37569,36.63283 35.14787,36.63283 0.39885,0 2.70374,-1.9177 5.12199,-4.26156 z m -48.80816,-63.59922 -12.12596,-13.15182 9.20198,-8.68068 c 10.55198,-9.9542 16.83595,-12.7753 22.88016,-10.2717 8.83275,3.65864 15.85461,16.38724 13.09924,23.74512 -1.35246,3.61156 -14.6982,18.07793 -18.72329,20.29546 -1.7642,0.97195 -4.6354,-1.4193 -14.33213,-11.93638 z m 92.94229,21.07876 c 3.0778,-2.26344 5.596,-4.48324 5.596,-4.93288 0,-0.44965 -1.872,-5.77744 -4.16,-11.83953 -2.2879,-6.06209 -3.8542,-11.81879 -3.4805,-12.79267 0.3738,-0.97387 6.7954,-6.44617 14.2703,-12.16067 l 13.5908,-10.39 7.524,5.11555 c 16.1118,10.95433 13.7204,10.27963 20.0186,5.64786 3.0636,-2.25299 5.5701,-4.59053 5.5701,-5.19454 0,-0.60401 -11.1084,-8.80211 -24.6855,-18.21799 -13.577,-9.41588 -35.2071,-24.46978 -48.0668,-33.45311 -12.85974,-8.98334 -23.80126,-16.3172 -24.31449,-16.29747 -0.51324,0.0197 -2.94536,1.70504 -5.40472,3.74513 l -4.47155,3.70926 8.62697,23.25487 c 4.74483,12.79018 13.95703,37.79256 20.47155,55.56084 6.51454,17.76829 12.17634,32.31829 12.58194,32.33334 0.4055,0.015 3.2555,-1.82455 6.3333,-4.08799 z m -18.92996,-68.01897 c -4.94074,-12.54054 -8.79361,-22.96277 -8.56193,-23.16051 0.46847,-0.39983 35.38349,25.05842 38.21009,27.86089 1.4927,1.47993 0.058,3.12441 -8.6667,9.93293 -5.7505,4.48765 -10.8026,8.16124 -11.2269,8.16352 -0.4243,0.002 -4.8138,-10.25629 -9.75456,-22.79683 z m 1090.20493,52.91864 c 3.427,-2.00838 9.1709,-7.05646 12.7642,-11.21796 12.0333,-13.93624 44.2235,-53.82766 44.2235,-54.8036 0,-0.93395 -3.7148,-4.50487 -8.1705,-7.85417 -1.8816,-1.41432 -4.8075,1.61186 -21.9771,22.72994 -30.7108,37.77332 -32.7875,39.69966 -42.7862,39.68982 -15.4249,-0.0152 -22.7081,-17.12665 -13.3343,-31.32835 1.9362,-2.93333 13.11,-17.03333 24.8308,-31.33333 l 21.3106,-26 -4.9367,-4.28327 c -2.7151,-2.3558 -5.3518,-4.3058 -5.8593,-4.33334 -0.5075,-0.0275 -8.3075,9.03507 -17.3333,20.13911 -9.0259,11.10405 -19.9006,24.40626 -24.1661,29.56048 -4.2655,5.15421 -8.9668,11.74565 -10.4473,14.64763 -3.5354,6.93008 -4.6012,17.96905 -2.4699,25.58153 2.0805,7.43067 10.0583,16.74973 17.6561,20.6245 8.1112,4.13657 21.9305,3.31765 30.6955,-1.81899 z m -69.1936,-48.45099 c 1.2698,-9.35 2.9279,-20.67099 3.6846,-25.15776 l 1.376,-8.15777 7.077,-0.73041 c 8.4166,-0.86868 13.322,-3.20624 19.2879,-9.19117 10.342,-10.37503 13.5377,-25.68118 7.7558,-37.14703 -2.5124,-4.98233 -5.9254,-7.94227 -21,-18.21279 -9.9,-6.74498 -18.4689,-12.29498 -19.0419,-12.33333 -0.5731,-0.0384 -9.3666,12.68026 -19.5412,28.2636 -10.1746,15.58333 -23.0209,35.23333 -28.5474,43.66666 -5.5265,8.43334 -10.4097,16.28587 -10.8517,17.45009 -0.9291,2.44751 9.5911,10.19545 11.3162,8.33416 0.5697,-0.61467 6.2199,-9.06758 12.5561,-18.78425 6.3362,-9.71666 12.2864,-17.66666 13.2228,-17.66666 0.9363,0 3.7689,1.54059 6.2947,3.42353 2.5258,1.88294 5.3853,3.88078 6.3543,4.43964 1.4249,0.82172 0.9784,5.29485 -2.3333,23.38069 -2.2524,12.30052 -4.091,23.65267 -4.0857,25.22702 0.01,1.89947 1.9128,4.08888 5.6667,6.508 3.1114,2.00505 6.2968,3.65505 7.0788,3.66666 0.815,0.0121 2.407,-7.23397 3.7303,-16.97888 z m 6.7669,-49.6 c -3.5533,-1.45797 -21.9189,-13.33078 -21.9189,-14.16991 0,-0.35239 3.9664,-6.61764 8.8144,-13.92277 5.3974,-8.1332 9.4032,-12.93712 10.3333,-12.39223 16.147,9.45955 24.8523,17.77465 24.8523,23.73848 0,3.52048 -5.1697,12.51542 -8.3505,14.52939 -4.0457,2.56154 -10.3932,3.58645 -13.7306,2.21704 z m -930.37317,47.38995 c -1.7128,-3.00114 -7.1113,-12.24122 -11.9966,-20.53351 -4.8854,-8.2923 -8.8819,-15.4923 -8.8811,-16 10e-4,-0.73779 10.8178,-7.51224 14.9227,-9.34601 0.5207,-0.2326 10.39,6.59246 21.9318,15.1668 l 20.98517,15.58971 5.842,-3.1668 c 6.8731,-3.72568 9.4077,-6.30246 7.4774,-7.60176 -0.7341,-0.49411 -10.6989,-7.3869 -22.14407,-15.31731 l -20.8094,-14.41893 2.5339,-5.58107 c 8.1366,-17.92164 -4.3944,-43.25633 -23.4004,-47.30992 -7.947,-1.69494 -15.3496,-0.0249 -24.6738,5.56642 -4.0334,2.41863 -12.3089,7.29527 -18.3902,10.83699 -7.7542,4.51605 -10.834,7.01999 -10.311,8.38298 0.5738,1.4952 33.3135,56.90972 54.3316,91.96044 l 2.6093,4.35132 6.5434,-3.56137 6.5434,-3.56136 z m -38.0007,-64.08095 c -4.5164,-7.67672 -8.2117,-14.43309 -8.2117,-15.01416 0,-1.87242 21.2314,-13.84595 25.8929,-14.60241 13.1384,-2.13207 23.4256,17.04891 14.7032,27.4149 -2.646,3.14464 -21.7863,16.15934 -23.765,16.15934 -0.2242,0 -4.1029,-6.28095 -8.6194,-13.95767 z m 873.85907,18.62434 c 2.6845,-5.13334 12.0211,-23.58719 20.748,-41.00856 l 15.8671,-31.67521 11.8008,5.92671 11.8008,5.92672 3.0823,-6.58095 c 1.6953,-3.61953 2.8306,-6.78938 2.523,-7.04411 -0.3077,-0.25474 -13.5951,-7.16484 -29.5276,-15.35579 l -28.9681,-14.89263 -3.3871,6.68411 -3.3871,6.6841 11.3552,5.63161 c 6.2454,3.09739 11.3552,6.06321 11.3552,6.59072 0,0.5275 -9.3,19.20427 -20.6666,41.50393 -11.3667,22.29966 -20.6667,41.11614 -20.6667,41.8144 0,1.68433 11.0714,7.09158 12.2616,5.98855 0.5105,-0.47315 3.1247,-5.06027 5.8092,-10.1936 z m -752.3294,5.97702 6.0804,-2.68964 -7.0788,-14.97703 c -3.8933,-8.23736 -13.4532,-28.10458 -21.2442,-44.14938 -7.791,-16.0448 -14.1655,-29.42264 -14.1655,-29.72853 0,-0.3059 4.9864,-2.91476 11.0809,-5.79747 6.0946,-2.88271 11.4676,-5.62795 11.9402,-6.10053 1.0841,-1.08406 -5.4447,-14.14224 -6.7352,-13.4712 -0.5239,0.2724 -14.5329,6.98546 -31.131,14.9179 l -30.17847,14.42263 3.1889,6.79811 c 1.7538,3.73897 3.6341,6.69583 4.1784,6.57081 0.5443,-0.12502 5.5704,-2.37502 11.1692,-5 5.5987,-2.62498 10.82137,-4.77269 11.60587,-4.77269 0.7845,0 3.5024,4.35 6.0397,9.66666 2.5374,5.31667 10.7277,22.26667 18.2008,37.66667 7.4731,15.4 14.7032,30.55 16.0667,33.66667 1.3636,3.11666 3.0243,5.66666 3.6905,5.66666 0.6661,0 3.9474,-1.21034 7.2916,-2.68964 z m 47.214,-22.15817 c 3.1412,-1.19963 5.7112,-2.96221 5.7112,-3.91686 0,-0.95465 -5.737,-17.73606 -12.749,-37.29204 -7.012,-19.55598 -12.562,-35.71941 -12.3333,-35.91873 0.2286,-0.19932 13.9157,11.61319 30.4157,26.25002 41.2112,36.55768 37.4013,33.90428 44.6866,31.12199 3.289,-1.25609 5.98,-2.86735 5.98,-3.5806 0,-0.71324 -5.7463,-17.31362 -12.7696,-36.88972 -7.0234,-19.5761 -15.4915,-43.18321 -18.8182,-52.46023 l -6.0484,-16.86732 -6.8486,2.35435 c -8.0329,2.76153 -7.9913,1.69854 -0.8369,21.38029 16.9189,46.54397 19.941,55.15856 19.5032,55.59629 -0.2673,0.2673 -15.6603,-12.83214 -34.2067,-29.10985 l -33.7206,-29.59585 -6.0901,1.62885 c -3.3496,0.89587 -6.3959,1.93459 -6.7695,2.30825 -0.6962,0.69612 4.694,17.17401 12.5956,38.50564 3.372,9.10318 18.995,52.70208 24.0084,67 0.7529,2.14714 1.4311,2.10505 8.2902,-0.51448 z m 655.4871,-4.16793 c 6.0912,-3.55746 12.5444,-12.71916 15.0779,-21.40617 1.812,-6.21327 1.947,-8.83796 0.7495,-14.57349 -1.9642,-9.40789 -6.5573,-14.99449 -18.3927,-22.37115 -13.6365,-8.49927 -16.7731,-15.20116 -11.3088,-24.16265 6.034,-9.89549 18.4595,-8.69579 30.4753,2.94243 l 7.4849,7.24975 5.1274,-3.55329 c 2.8201,-1.95431 5.4257,-4.03585 5.7902,-4.62566 1.232,-1.9935 -3.3224,-8.8151 -9.5387,-14.28689 -14.7788,-13.00879 -36.3239,-14.25513 -46.784,-2.70636 -7.9446,8.77135 -11.8978,24.74973 -8.5975,34.74984 1.9543,5.92138 9.304,13.37021 18.233,18.47887 9.5893,5.48645 12.5743,9.49745 12.5743,16.89622 0,12.57347 -11.6074,17.29699 -26,10.58049 -6.1031,-2.84811 -13.9135,-10.11005 -17.4017,-16.17991 -1.3263,-2.30772 -1.7395,-2.24131 -7.6667,1.23229 -3.4457,2.01932 -6.2649,4.40885 -6.2649,5.31009 0,2.54642 8.5652,13.97689 13.5316,18.05824 13.6167,11.1902 31.9548,14.76601 42.9109,8.36735 z m -70.4071,-28.98426 c 1.6342,-5.86666 8.1733,-29.18805 14.5315,-51.82531 6.3581,-22.63725 11.2907,-41.4282 10.9612,-41.75766 -1.3085,-1.30854 -12.8253,-4.2106 -13.2677,-3.34329 -0.2599,0.50945 -4.8814,16.67626 -10.27,35.92626 -5.3885,19.25 -10.1899,35 -10.6697,35 -0.7848,0 -4.2652,-14.06766 -16.0944,-65.05367 -2.0911,-9.01286 -4.1478,-16.94655 -4.5704,-17.63043 -1.1425,-1.8485 -11.4915,-4.34919 -12.745,-3.07963 -0.9169,0.9287 -15.9728,52.84596 -22.1646,76.4304 -1.0589,4.03333 -3.085,11.14653 -4.5025,15.80711 -1.4174,4.66058 -2.5772,9.23261 -2.5772,10.16006 0,2.09229 11.7374,5.56036 13.1762,3.89321 0.5666,-0.65654 4.7822,-14.69371 9.368,-31.19371 11.4413,-41.16676 11.0765,-39.97981 12.0947,-39.35053 0.5003,0.30918 1.6526,4.03953 2.5607,8.28967 0.9081,4.25014 3.0875,13.72752 4.843,21.06086 1.7556,7.33333 5.0274,21.26673 7.2707,30.96312 2.2433,9.69638 4.5714,18.96167 5.1736,20.58952 1.0691,2.89015 8.3249,6.52128 12.0453,6.02802 1.1243,-0.14907 3.0458,-4.48483 4.8366,-10.914 z m -470.8745,-3.22574 c 15.3052,-3.65844 28.1515,-6.97559 28.5474,-7.37144 0.974,-0.97406 -2.3188,-15.40282 -3.5152,-15.40282 -0.5219,0 -9.3289,2.04571 -19.571,4.54601 -10.2422,2.5003 -20.4595,4.92324 -22.7051,5.38429 l -4.0831,0.83829 -3.6664,-15.56816 c -2.0166,-8.56249 -3.1792,-15.96763 -2.5837,-16.45586 0.5956,-0.48823 9.3328,-2.86706 19.4162,-5.28627 14.3676,-3.44711 18.3317,-4.87371 18.3259,-6.5951 -0.014,-3.96851 -2.7577,-12.19653 -4.0679,-12.19653 -0.7058,0 -8.876,1.82503 -18.1561,4.05563 -9.2801,2.23059 -17.8044,3.87622 -18.943,3.65696 -1.4562,-0.28045 -3.1049,-4.81015 -5.5603,-15.27691 l -3.4904,-14.87825 22.7792,-5.59587 c 12.5286,-3.07773 22.9292,-5.72814 23.1125,-5.8898 0.7915,-0.69797 -2.8036,-15.40509 -3.7657,-15.40509 -0.5854,0 -7.2526,1.47548 -14.816,3.27884 -7.5633,1.80336 -20.7941,4.95336 -29.4017,7 -12.8016,3.04385 -15.6531,4.15906 -15.6667,6.12702 -0.01,1.32322 4.7121,21.72322 10.4915,45.33333 5.7795,23.61011 11.5904,47.5827 12.9132,53.27241 1.8927,8.14055 2.8499,10.21028 4.492,9.71299 1.1477,-0.34758 14.6092,-3.62523 29.9144,-7.28367 z m 57.8805,-12.77411 c 0.2062,-0.16791 -1.1698,-10.96065 -3.0577,-23.98389 -1.8879,-13.02323 -3.2214,-23.88971 -2.9634,-24.14773 0.2581,-0.25802 4.634,-0.82345 9.7244,-1.25652 l 9.2553,-0.78738 13.1317,22.20331 13.1317,22.20332 8.2016,-0.93223 c 4.5109,-0.51272 8.4399,-1.15306 8.7312,-1.42297 0.2913,-0.2699 -5.8587,-10.62942 -13.6667,-23.02115 -7.8079,-12.39173 -14.1962,-22.94217 -14.1962,-23.44541 0,-0.50324 1.8913,-2.50643 4.2029,-4.45153 12.4805,-10.50159 12.5108,-35.63191 0.059,-48.74367 -8.1804,-8.61386 -14.27,-9.56941 -39.5952,-6.21312 -11,1.45781 -20.8273,2.65392 -21.8385,2.65802 -2.0914,0.008 -2.0141,0.89502 3.1399,36.00747 1.7762,12.1 4.7998,33.1 6.7192,46.66667 4.7942,33.88659 3.6093,30.88912 11.7971,29.84526 3.7669,-0.48025 7.0176,-1.01055 7.2237,-1.17845 z m -10.1836,-72.97481 c -0.8339,-5.3306 -1.8893,-13.0446 -2.3452,-17.14222 l -0.8289,-7.45021 14.381,-1.77423 c 13.5428,-1.67081 14.6595,-1.62512 19.1582,0.78384 3.9518,2.11614 5.0675,3.70978 6.4584,9.22445 1.439,5.7054 1.372,7.49121 -0.4647,12.38841 -2.7446,7.31769 -6.193,9.49359 -17.4472,11.00906 -5.0065,0.67417 -10.9686,1.54687 -13.2491,1.93933 l -4.1463,0.71357 z m 320.6387,69.87207 c 6.0352,-3.10942 12.6365,-9.77386 15.6945,-15.84463 5.341,-10.60308 12.1159,-53.26933 10.0145,-63.06805 -2.6912,-12.5485 -12.3083,-23.53639 -23.2055,-26.51302 -12.4553,-3.40224 -21.3158,-0.82929 -31.5449,9.16018 -8.6628,8.45991 -10.2681,12.62503 -14.3961,37.35347 -4.3474,26.04273 -4.5473,29.65265 -2.1068,38.04776 2.7712,9.53248 13.2016,20.74758 21.4271,23.03898 7.1998,2.00569 17.871,1.04345 24.1172,-2.17469 z m -20.8299,-14.50999 c -3.2313,-1.18816 -6.7905,-4.75933 -8.9983,-9.02883 -2.8645,-5.53941 -2.3452,-18.09419 1.53,-36.98868 4.8412,-23.60473 10.1946,-30.01071 23.9729,-28.68678 5.5942,0.53752 7.3551,1.3958 10.4364,5.08672 6.301,7.54748 6.5269,16.99529 1.0523,44.00444 -2.9663,14.63445 -6.0462,20.83393 -12.138,24.43247 -3.4904,2.06181 -11.78,2.6791 -15.8553,1.18066 z m -56.6121,5.79009 c 7.1785,-3.34278 12.4725,-8.72983 16.6759,-16.9691 3.9242,-7.69211 3.4926,-9.20841 -2.6214,-9.20841 -2.8733,0 -6.1017,-0.33671 -7.1741,-0.74824 -1.2568,-0.48224 -3.0003,0.95124 -4.9045,4.03233 -7.7646,12.56335 -25.9099,11.2255 -31.3453,-2.31107 -3.6391,-9.06314 -1.4308,-45.03641 3.3801,-55.0609 6.9562,-14.49478 25.6296,-14.47661 32.0471,0.0312 2.5833,5.83995 5.5312,7.39003 14.0543,7.39003 3.927,0 4.1555,-3.27818 0.8679,-12.45011 -2.9779,-8.30801 -10.1062,-16.58858 -16.9601,-19.70172 -7.5181,-3.41482 -19.6176,-3.29661 -26.9718,0.2635 -7.6204,3.68899 -15.994,13.41471 -18.3341,21.29458 -2.7996,9.42734 -5.1499,35.48598 -4.5493,50.43946 0.466,11.60262 0.9546,13.78206 4.1837,18.66157 10.5255,15.90503 26.4861,21.39885 41.6516,14.33689 z m -124.0802,0.3341 c 8.364,-2.32203 16.0038,-8.33825 19.1865,-15.1091 4.2653,-9.07412 3.9716,-23.27307 -0.6743,-32.59616 -5.7614,-11.56171 -12.7993,-15.32116 -33.8633,-18.08875 -8.8306,-1.16024 -14.1708,-4.89825 -16.0743,-11.25145 -1.9093,-6.37256 -0.104,-12.04938 5.1447,-16.178 4.9437,-3.88872 18.7828,-3.61529 27.7231,0.54773 l 6.75,3.14317 3.8075,-7.27226 c 4.2421,-8.10217 4.3313,-7.89429 -5.3156,-12.38864 -11.8997,-5.54393 -29.236,-5.86885 -39.1656,-0.73404 -14.36,7.42583 -19.4816,31.64626 -9.9614,47.10792 5.247,8.52176 13.6729,12.96463 28.3923,14.97106 13.6432,1.85973 17.9919,3.93145 19.9315,9.49536 3.3365,9.57108 0.4681,17.02223 -7.8312,20.34295 -9.7977,3.92026 -24.403,1.83576 -33.7936,-4.82309 -2.0732,-1.47007 -4.2063,-2.14908 -4.7402,-1.50891 -6.4552,7.73918 -8.2967,11.38918 -6.7103,13.30069 2.4649,2.97002 12.4963,8.58344 18.9346,10.59558 6.9753,2.17994 21.2048,2.40449 28.2596,0.44594 z"
       id="path1" />
  </g>
</svg>
