<?xml version="1.0" encoding="UTF-8" standalone="no"?>
<!-- Created with Inkscape (http://www.inkscape.org/) -->

<svg
   version="1.1"
   id="svg1"
   width="2208"
   height="2028"
   viewBox="0 0 2208 2028"
   sodipodi:docname="svg_white_logo.svg"
   inkscape:version="1.4 (86a8ad7, 2024-10-11)"
   xmlns:inkscape="http://www.inkscape.org/namespaces/inkscape"
   xmlns:sodipodi="http://sodipodi.sourceforge.net/DTD/sodipodi-0.dtd"
   xmlns="http://www.w3.org/2000/svg"
   xmlns:svg="http://www.w3.org/2000/svg">
  <defs
     id="defs1" />
  <sodipodi:namedview
     id="namedview1"
     pagecolor="#ffffff"
     bordercolor="#000000"
     borderopacity="0.25"
     inkscape:showpageshadow="2"
     inkscape:pageopacity="0.0"
     inkscape:pagecheckerboard="0"
     inkscape:deskcolor="#d1d1d1"
     inkscape:zoom="0.32759342"
     inkscape:cx="1051.6084"
     inkscape:cy="976.82059"
     inkscape:window-width="1920"
     inkscape:window-height="991"
     inkscape:window-x="-9"
     inkscape:window-y="-9"
     inkscape:window-maximized="1"
     inkscape:current-layer="g1" />
  <g
     inkscape:groupmode="layer"
     inkscape:label="Image"
     id="g1">
    <path
       style="fill:#000000"
       d="m 893.87059,1995.8587 c -111.12344,-19.3583 -230.30233,-59.8419 -332.19757,-112.8433 -21.22153,-11.0385 -61.5178,-34.1141 -77.92634,-44.6243 C 406.63364,1788.9973 355.88783,1748.4655 294.41413,1687.167 237.19773,1630.1137 194.00477,1576.4937 152.6184,1511.1411 72.133089,1384.0479 22.887979,1239.2141 9.8287799,1091.1854 7.10536,1060.3149 7.1461,961.17734 9.8945799,931.14101 30.346079,707.63644 128.46724,501.45354 292.55325,337.18767 471.97009,157.57415 708.41646,45.872807 972.53729,15.951468 c 50.47811,-5.718496 72.43111,-6.8154204 134.66661,-6.7288994 62.6718,0.08713 88.6328,1.5285794 140.6667,7.8103184 215.8118,26.053673 414.6486,107.749923 578.2261,237.576303 63.6266,50.49846 127.6606,115.01057 176.5468,177.86515 113.4289,145.83926 182.0909,318.48798 198.5836,499.33334 3.8876,42.62756 3.8857,118.47622 0,159.33342 -14.5145,152.4619 -62.197,292.3362 -143.4032,420.6667 -23.5011,37.1388 -56.5541,82.3022 -79.9533,109.2476 -5.1355,5.9138 -12.6355,14.6223 -16.6667,19.3522 -23.0457,27.0408 -66.3592,69.7936 -100.7351,99.4314 -143.1614,123.4289 -318.9204,209.4555 -509.2609,249.2615 -52.3555,10.9492 -30.1227,10.0566 -246.8148,9.9092 l -193.18511,-0.1314 z m 304.66671,-13.2371 c 52.8062,-4.7366 99.5603,-11.5599 147.3333,-21.5019 341.4282,-71.0541 625.7615,-293.7954 755.6173,-591.9361 38.3232,-87.9879 62.8578,-185.0698 71.9515,-284.7092 2.371,-25.9784 2.3763,-120.83126 0.01,-146.00006 C 2157.6486,770.55936 2102.3327,620.86329 2005.4384,483.80768 1952.8646,409.44271 1881.7826,334.82882 1807.3955,275.92439 1645.4547,147.68948 1447.5181,67.709062 1233.2039,43.910279 1074.6408,26.302438 910.71089,41.914314 759.87063,88.988208 513.23466,165.95783 305.58391,322.15526 175.61246,528.47434 75.223319,687.83394 25.856739,874.85986 35.891869,1057.8078 47.113209,1262.3812 125.3158,1452.49 265.0983,1615.0035 c 21.94952,25.5189 74.01403,77.6571 100.10566,100.2474 168.87674,146.2143 377.40361,236.6541 606.66663,263.1164 15.7667,1.8198 38.56671,3.9459 50.66671,4.7247 12.1,0.7787 24.7,1.6429 28,1.9203 15.1188,1.2711 127.3957,-0.5426 148,-2.3907 z m -138.388,-40.7931 c -7.0024,-1.659 -13.8233,-8.196 -18.1079,-17.3541 -2.52,-5.3865 -2.8007,-8.3315 -2.7453,-28.803 0.072,-26.5515 1.3337,-31.4953 10.248,-40.1506 10.6833,-10.3731 26.1102,-10.9877 36.4547,-1.4525 10.5589,9.7328 11.4794,13.2587 10.9758,42.0425 -0.3976,22.7255 -0.7069,25.533 -3.3591,30.4899 -6.9697,13.0263 -19.2239,18.6022 -33.4662,15.2278 z m 15.7649,-15.3766 c 6.7168,-3.4734 8.4741,-8.7267 9.0514,-27.058 0.6992,-22.1986 -0.2496,-27.6741 -5.748,-33.1724 -3.695,-3.695 -5.3957,-4.4137 -10.4447,-4.4137 -7.4764,0 -13.5317,4.5846 -15.5225,11.7523 -2.0817,7.4951 -1.7542,39.4372 0.4586,44.7333 3.8268,9.1587 13.4405,12.6909 22.2052,8.1585 z m 35.3519,2.3559 c -2.2063,-35.2953 -4.3723,-79.7153 -3.9116,-80.2169 0.278,-0.3026 9.6578,-0.7941 20.8441,-1.0923 18.6788,-0.4978 20.688,-0.3212 24.6186,2.1648 13.8844,8.7813 16.4099,31.5137 4.8262,43.441 -2.5123,2.5869 -5.1911,4.7034 -5.9529,4.7034 -0.7617,0 3.4308,9.2395 9.3166,20.5323 10.217,19.6025 10.5695,20.5678 7.7826,21.3151 -1.6055,0.4306 -4.8244,0.791 -7.153,0.801 -4.1437,0.018 -4.4412,-0.4107 -13.951,-20.0916 -9.6337,-19.9374 -9.7503,-20.1031 -13.5994,-19.3333 -2.1353,0.4271 -5.6753,0.7765 -7.8667,0.7765 h -3.9843 l 0.9592,19.805 0.9591,19.805 -4.3081,0.8617 c -7.8107,1.5621 -7.621,1.86 -8.5794,-13.4717 z m 32.6386,-41.6542 c 5.828,-1.6191 9.2992,-7.0892 9.2992,-14.6541 0,-4.4313 -0.8324,-6.396 -4.0906,-9.6542 l -4.0907,-4.0906 -12.1329,0.8612 c -6.6731,0.4736 -12.3412,1.0696 -12.5959,1.3243 -0.2547,0.2546 -0.064,6.554 0.4239,13.9986 l 0.8871,13.5356 8.7996,-0.01 c 4.8397,0 10.9149,-0.5951 13.5003,-1.3134 z m -141.0341,52.4028 c -1.65,-0.3304 -2.99971,-1.309 -2.99941,-2.1747 9e-4,-2.2653 -8.0366,-56.6834 -9.1928,-62.2406 -0.9107,-4.3772 -1.282,-3.6743 -5.9863,11.3333 -2.7585,8.8 -7.4658,23.65 -10.4608,33 l -5.4453,17 h -5.0639 c -6.0046,0 -4.5746,5.8811 -11.8334,-48.6666 -2.9276,-22 -5.6143,-41.65 -5.9705,-43.6667 -0.6259,-3.5442 -0.4509,-3.6667 5.2404,-3.6667 3.2384,0 6.2763,0.6284 6.751,1.3964 0.4746,0.7679 2.4078,15.7679 4.296,33.3333 1.8881,17.5653 3.8042,31.937 4.2579,31.937 0.4537,0 1.5799,-2.55 2.5025,-5.6667 7.0486,-23.8103 18.8557,-57.6425 20.0785,-57.5333 0.8211,0.073 2.8736,0.2233 4.5613,0.3333 2.9712,0.1937 3.2323,1.2793 8.22531,34.197 2.8363,18.6983 5.299,33.8483 5.4728,33.6666 0.4019,-0.4201 17.9,-63.2139 17.9,-64.2361 0,-0.4184 3.0115,-0.7608 6.6921,-0.7608 6.2763,0 6.6448,0.1864 5.9318,3 -0.4182,1.65 -6.6463,22.5 -13.8402,46.3333 -13.9307,46.1526 -13.2026,44.667 -21.117,43.082 z m 179.0666,-5.9811 c -1.1223,-8.1556 -10.0666,-86.1268 -10.0666,-87.7547 0,-0.7404 2.6728,-1.3462 5.9396,-1.3462 6.9119,0 6.0571,-2.4647 9.4801,27.3334 1.1793,10.2666 2.3313,18.8556 2.56,19.0866 0.2286,0.2309 5.6604,-9.3691 12.0706,-21.3334 17.2706,-32.2346 15.6472,-30.0642 22.9768,-30.7195 3.4684,-0.3102 6.5084,-0.4175 6.7554,-0.2385 0.2471,0.1789 -4.3492,9.1486 -10.2139,19.9326 l -10.6631,19.6072 4.2139,6.5307 c 2.3177,3.592 10.1455,15.535 17.3952,26.5401 7.2498,11.0051 12.9498,20.2298 12.6667,20.4992 -0.283,0.2695 -3.4731,0.7011 -7.0889,0.9591 l -6.5743,0.4692 -13.1851,-20.6667 c -7.2518,-11.3666 -13.7066,-20.6666 -14.3439,-20.6666 -0.6373,0 -3.6637,3.8756 -6.7253,8.6125 l -5.5666,8.6126 1.5604,13.8673 c 0.8583,7.627 1.3764,14.0328 1.1514,14.2351 -0.2249,0.2023 -2.9154,0.7817 -5.9788,1.2877 l -5.5699,0.9198 z m 73.8398,5.5658 c -1.279,-4.402 -3.3843,-20.8682 -2.748,-21.493 0.4629,-0.4545 3.0263,-1.1562 5.6964,-1.5593 4.5615,-0.6886 4.9039,-0.4877 5.6667,3.3264 1.451,7.2552 0.845,9.6414 -3.8246,15.0592 -2.5282,2.9334 -4.6839,5.0334 -4.7905,4.6667 z M 877.87059,1924.08 c -12.4666,-2.2335 -22.82494,-4.1668 -23.01843,-4.2962 -0.48462,-0.324 15.78813,-91.8452 16.44903,-92.5125 0.2922,-0.2951 11.9738,1.4664 25.959,3.9145 l 25.4278,4.4509 -0.8792,5.4189 c -0.4836,2.9803 -1.3272,5.8985 -1.8746,6.4847 -0.5474,0.5862 -8.4356,-0.2005 -17.5294,-1.7483 -9.0938,-1.5478 -17.688,-2.9274 -19.0982,-3.0659 -2.2301,-0.2189 -2.8575,1.3979 -4.8182,12.415 -1.2957,7.2808 -1.7428,12.997 -1.0515,13.4436 0.6615,0.4274 8.1438,1.9048 16.6273,3.2832 l 15.4246,2.5062 -0.8148,5.9448 c -0.4482,3.2696 -1.0044,6.1344 -1.2362,6.3661 -0.2317,0.2318 -6.6779,-0.7708 -14.3249,-2.2279 -20.8737,-3.9775 -19.1405,-4.8014 -21.6505,10.2927 -1.1836,7.1182 -1.9021,13.1921 -1.5965,13.4977 0.3055,0.3055 8.8249,2.0248 18.9318,3.8207 10.1069,1.7958 18.6053,3.4941 18.8852,3.7741 0.28,0.2799 0.1,3.2367 -0.4,6.5705 -1.0898,7.2671 1.1387,7.1408 -29.4123,1.6672 z m 423.69521,-6.4553 c 0.4211,-3.1993 2.4342,-25.4289 4.4737,-49.3992 3.5043,-41.1873 3.858,-43.6225 6.4362,-44.3151 6.2187,-1.6706 8.2142,-0.811 11.369,4.8974 1.7225,3.1166 12.6711,22.0785 24.3303,42.1374 11.6591,20.059 20.9932,36.6761 20.7423,36.927 -0.2509,0.2508 -3.0134,1.0307 -6.1389,1.7329 -6.3169,1.4194 -5.4153,2.1819 -12.7665,-10.7973 -1.9729,-3.4834 -4.3118,-6.3433 -5.1975,-6.3555 -0.8858,-0.012 -7.7109,1.3149 -15.167,2.9491 -15.3088,3.3553 -15.1101,3.1211 -15.1101,17.8165 0,7.599 0.1869,7.41 -9.2019,9.3073 l -4.5351,0.9164 z m 28.7807,-35.2888 c 9.019,-2.0367 9.3987,-2.2747 7.9786,-5 -0.8201,-1.5738 -5.4555,-10.0615 -10.301,-18.8615 l -8.8099,-16 -0.8787,12 c -2.1057,28.7547 -2.0929,30 0.3084,30 1.2281,0 6.4943,-0.9623 11.7026,-2.1385 z m -501.05109,31.6576 c -2.98501,-0.8558 -4.00545,-3.75 -12.87896,-36.5278 -5.3004,-19.5791 -9.89806,-36.3618 -10.21703,-37.2948 -0.31898,-0.9331 -4.05195,12.7035 -8.29551,30.3035 -4.24355,17.6 -7.89661,32.2096 -8.1179,32.4657 -0.2213,0.2562 -2.84279,0.053 -5.82553,-0.4505 -4.14437,-0.7002 -5.42318,-1.5209 -5.42318,-3.4803 0,-1.4103 4.88742,-22.1079 10.86093,-45.9948 l 10.86094,-43.4306 4.80573,0.8823 c 2.64315,0.4853 5.23625,1.2962 5.76244,1.802 0.87592,0.842 12.43113,41.9384 17.78641,63.2579 1.23626,4.9216 2.6248,8.9445 3.08564,8.9399 0.46085,0 4.10179,-13.5035 8.09098,-29.9975 3.9892,-16.4939 7.6389,-30.6133 8.11046,-31.3763 1.13102,-1.83 11.99956,-0.1046 11.87976,1.886 -0.049,0.8229 -5.01414,21.2962 -11.03259,45.4962 -11.82732,47.5573 -11.0935,45.9156 -19.45259,43.5191 z m 546.62069,-17.1857 c -16.7406,-55.844 -23.5995,-81.0898 -22.2367,-81.847 0.8385,-0.4658 3.3245,-1.2037 5.5245,-1.6397 3.7426,-0.7416 5.7162,0.8714 30.6667,25.0644 14.6667,14.2215 26.856,25.67 27.0874,25.4412 0.2315,-0.2288 -3.5573,-14.0579 -8.4195,-30.7313 -4.8621,-16.6734 -8.3515,-30.7783 -7.7541,-31.3442 0.5974,-0.5659 3.2098,-1.6015 5.8054,-2.3012 l 4.7192,-1.2722 13.1507,45.1673 c 7.2329,24.842 12.9093,45.396 12.6142,45.6755 -0.2952,0.2795 -2.6459,1.0838 -5.224,1.7872 l -4.6873,1.279 -27.2787,-26.3957 c -15.0033,-14.5176 -27.4066,-26.2678 -27.563,-26.1114 -0.1564,0.1564 3.8607,14.3393 8.9267,31.5177 5.0661,17.1783 9.0788,31.3266 8.9171,31.4406 -0.7698,0.5424 -9.49,3.2698 -10.4547,3.2698 -0.6028,0 -2.3101,-4.05 -3.7939,-9 z m -638.25848,-8.2768 c -7.26618,-1.7314 -12.76637,-5.8484 -17.01611,-12.7371 -6.34131,-10.2791 -5.81142,-19.9309 2.43187,-44.2963 5.10251,-15.0819 7.47485,-20.1749 11.55851,-24.8142 6.73534,-7.6517 16.72363,-12.0829 24.37249,-10.8126 13.87942,2.3052 21.70748,9.8419 24.86736,23.9419 1.20589,5.3809 0.92959,8.0287 -1.93514,18.5441 -5.18429,19.0298 -12.2255,36.7676 -16.3323,41.1434 -4.42887,4.7189 -15.70173,10.3321 -20.40034,10.1581 -1.83333,-0.068 -5.22918,-0.5752 -7.54634,-1.1273 z m 17.58393,-17.4252 c 3.98325,-3.7421 10.19605,-18.4596 14.02014,-33.2123 3.44881,-13.305 2.4339,-19.0855 -4.35376,-24.7969 -3.58322,-3.0151 -5.15709,-3.4719 -10.05894,-2.9193 -6.57591,0.7412 -11.26157,4.4104 -15.04031,11.7778 -3.54425,6.9101 -10.60472,31.3837 -10.60472,36.7589 0,5.9705 3.13593,11.8539 7.68343,14.4152 5.04534,2.8417 14.25639,1.8262 18.35416,-2.0234 z m 697.96235,10.6601 c 0,-0.7563 -6.9847,-20.3524 -15.5216,-43.5468 -13.2879,-36.1027 -15.2354,-42.3808 -13.5322,-43.6248 1.0943,-0.7993 9.0062,-3.8204 17.5821,-6.7136 14.8017,-4.9936 15.9106,-5.176 21.8654,-3.5971 7.3549,1.9503 15.3377,7.1323 19.0774,12.3843 3.1514,4.4257 13.4662,31.1519 15.837,41.0346 3.3523,13.9737 -2.4947,28.4686 -13.8699,34.3844 -5.1929,2.7006 -27.6647,11.0395 -29.7715,11.0477 -0.9167,0 -1.6667,-0.6123 -1.6667,-1.3687 z m 28.9883,-24.2603 c 5.2557,-4.9374 6.1006,-11.3809 2.8675,-21.8672 -4.8656,-15.781 -10.5885,-29.0223 -14.176,-32.7998 -5.7769,-6.0829 -10.9909,-7.0364 -20.6878,-3.7831 -4.5789,1.5362 -9.1111,3.2915 -10.0715,3.9006 -1.3589,0.8617 0.6186,7.5866 8.9133,30.3129 5.8628,16.063 11.0529,30.2298 11.5337,31.4818 0.8023,2.0893 1.6019,2.0025 9.7267,-1.0556 4.8689,-1.8327 10.2212,-4.618 11.8941,-6.1896 z m -805.39783,8.7271 c -2.79194,-1.1574 -4.79678,-2.7764 -4.45521,-3.598 2.75022,-6.6144 27.98177,-71.2956 28.45535,-72.9454 0.46106,-1.6063 -1.83406,-3.0093 -9.49122,-5.802 -5.55463,-2.0259 -10.09933,-4.1493 -10.09933,-4.7186 0,-1.9463 4.03399,-10.6943 4.93148,-10.6943 0.49262,0 12.50172,4.5734 26.68688,10.163 23.80814,9.3816 25.72332,10.3812 24.90838,13 -2.48613,7.9894 -3.24053,9.1041 -5.54527,8.1944 -1.27314,-0.5026 -6.08673,-2.345 -10.69688,-4.0942 l -8.38207,-3.1804 -1.35424,3.6253 c -7.69752,20.6061 -28.53097,72.2764 -29.12037,72.2232 -0.41868,-0.038 -3.04556,-1.0156 -5.8375,-2.173 z m 869.31653,-23.4249 c -1.1349,-2.3834 -10.2033,-21.0473 -20.1519,-41.4755 -9.9486,-20.4282 -18.0884,-37.5671 -18.0884,-38.0864 0,-0.5193 2.1417,-1.9655 4.7592,-3.2138 l 4.7593,-2.2695 8.4397,7.6893 c 4.6418,4.229 15.3207,14.1392 23.7308,22.0225 8.4102,7.8834 15.5362,14.3334 15.8356,14.3334 0.4589,0 -1.4349,-22.7027 -4.727,-56.6667 l -0.7754,-8 5.3928,-2.2645 5.3928,-2.2644 14.7458,30.2644 c 8.1102,16.6455 17.3201,35.7312 20.4665,42.4127 l 5.7207,12.1482 -4.5823,2.1851 c -2.5203,1.2019 -5.0383,2.1852 -5.5957,2.1852 -0.5574,0 -6.6423,-11.3948 -13.5221,-25.3216 -6.8797,-13.9269 -12.6674,-25.1629 -12.8614,-24.9688 -0.194,0.194 0.5036,9.6387 1.5502,20.9882 2.5298,27.4313 2.6754,25.7896 -2.5068,28.2608 l -4.4439,2.1191 -17.5561,-16.6495 c -9.6558,-9.1572 -17.556,-16.3881 -17.556,-16.0688 0,0.3194 5.6566,12.2192 12.5702,26.444 l 12.5702,25.8632 -4.2369,2.2775 c -5.937,3.1913 -6.9887,2.9722 -9.3299,-1.9441 z m -919.5736,1.7531 c -10.7844,-3.2923 -22.10629,-12.4807 -26.85974,-21.7983 -1.4628,-2.8673 -2.46777,-5.3467 -2.23328,-5.5098 1.5672,-1.0902 10.67408,-6.1117 11.08392,-6.1117 0.27782,0 1.83293,2.3625 3.45579,5.25 1.62287,2.8875 5.64291,7.1834 8.93344,9.5465 12.38837,8.8966 24.88617,5.8988 26.53094,-6.3639 0.84425,-6.2943 -0.0263,-7.4319 -13.29738,-17.3768 -4.11812,-3.086 -8.52876,-7.586 -9.80142,-10 -3.49055,-6.621 -3.05429,-16.5583 1.0729,-24.4386 7.5515,-14.4184 20.48176,-18.9651 34.65692,-12.1864 3.91851,1.8739 8.33971,4.4935 9.82487,5.8215 3.71559,3.3222 9.96637,11.7033 9.96637,13.363 0,0.75 -2.34277,2.914 -5.20617,4.8089 l -5.20616,3.4453 -3.12717,-4.6193 c -7.25826,-10.7216 -20.34579,-14.9543 -26.97688,-8.7247 -7.75377,7.2843 -5.32693,15.4739 7.18647,24.2516 8.80411,6.1757 12.6254,11.2966 14.01192,18.7771 1.98817,10.7266 -6.57523,27.2541 -16.20613,31.2781 -4.72345,1.9736 -12.43565,2.228 -17.80921,0.5875 z m 444,-30.2105 c -117.83561,-5.5101 -219.72749,-27.3475 -322.66667,-69.1539 -76.16047,-30.9309 -150.53433,-73.9715 -214,-123.8432 -36.6819,-28.8249 -87.05461,-76.5844 -115.53939,-109.5455 -108.5417,-125.599 -171.64162,-273.3932 -185.29393,-434 -3.77902,-44.4568 -1.43074,-113.23156 5.48942,-160.76964 37.53466,-257.84487 213.96355,-484.36202 469.3439,-602.59091 103.78416,-48.04711 209.16326,-75.07714 330.66667,-84.81691 26.8346,-2.15108 107.8354,-2.1717 136,-0.0346 207.4303,15.73939 393.3969,91.99933 542,222.25975 132.0668,115.76533 219.9607,265.88063 252.5214,431.28554 9.1745,46.60565 12.648,84.12201 12.715,137.33337 0.053,41.7069 -1.3392,64.4875 -6.028,98.6667 -26.6702,194.4115 -131.3521,372.0204 -295.7234,501.7398 -140.4476,110.8391 -316.9988,177.8452 -504.8184,191.5927 -19.7505,1.4457 -87.7943,2.6658 -104.6666,1.8768 z m 104.1611,-7.8607 c 123.0521,-8.9883 238.9441,-40.0437 345.8389,-92.6741 89.5036,-44.0678 161.7709,-95.6736 231.4336,-165.2659 119.2512,-119.1307 193.8155,-265.2114 217.1423,-425.4086 9.3202,-64.0068 9.317,-139.99571 -0.01,-204.00009 C 1950.274,789.90104 1897.6387,668.78978 1814.6759,563.80768 1768.0745,504.83776 1708.5151,448.13104 1646.0467,403.25514 1524.3747,315.84865 1378.7762,259.71539 1223.8706,240.4916 1153.3274,231.73719 1063.5383,231.47586 994.53729,239.82413 787.35474,264.89065 602.45096,352.67989 462.46936,492.44115 290.0293,664.60977 211.11368,893.59936 244.58212,1124.6851 c 22.94705,158.4399 97.49125,304.2735 216.62184,423.7855 149.61899,150.0981 352.59202,241.2142 574.66664,257.9723 31.9687,2.4124 106.0993,2.4374 138.8278,0.047 z m 278.3161,-422.7315 c -59.3576,-7.2157 -105.1725,-27.4266 -139.1161,-61.3702 -41.7178,-41.7179 -62.0278,-97.3533 -62.0278,-169.9136 0,-79.3372 24.9386,-139.6544 75.0518,-181.52246 46.4114,-38.77532 118.5593,-56.9358 200.4212,-50.44836 63.8868,5.06293 111.3268,24.60737 144.5943,59.57036 16.4978,17.33865 24.6255,34.11996 26.1861,54.06716 l 0.8085,10.3333 h -44.044 -44.044 l -0.9201,-7.6666 c -3.087,-25.7215 -24.4707,-43.97361 -61.3871,-52.39731 -15.3446,-3.50145 -54.6429,-5.00095 -71.6268,-2.7332 -33.8489,4.5197 -63.6892,17.8549 -86.5573,38.68131 -23.3306,21.2474 -36.5815,47.9539 -43.3896,87.4492 -3.2711,18.9767 -3.2864,70.6357 -0.026,89.3333 7.7054,44.1934 23.9768,74.0002 51.9022,95.0768 33.3235,25.1508 71.9019,35.4737 120.4837,32.2394 39.9063,-2.6568 64.1844,-12.4324 80.2104,-32.2968 5.8957,-7.3078 8.8601,-14.5959 10.3122,-25.3527 l 0.8549,-6.3334 h 43.9183 43.9183 v 6.3866 c 0,23.59 -20.0412,55.4221 -48,76.24 -40.251,29.9706 -87.7019,42.9077 -156,42.5323 -15.0334,-0.083 -33.7186,-0.9264 -41.5228,-1.8751 z M 566.5373,1144.4537 V 921.76615 l 37.411,0.3541 37.411,0.35409 74.85606,144.33346 c 41.17083,79.3833 75.18588,144.331 75.589,144.3281 0.40312,0 6.43294,-11.2615 13.3996,-25.0192 16.69864,-32.9764 81.91663,-161.1577 111.07443,-218.30906 l 23.1285,-45.3333 37.5652,-0.35409 37.56521,-0.3541 v 222.68755 222.6874 h -39.33331 -39.3334 v -138.7778 c 0,-110.4266 -0.3404,-138.6654 -1.6666,-138.2279 -0.9167,0.3025 -14.1364,24.8025 -29.3771,54.4445 -15.2407,29.642 -39.8333,77.4545 -54.65018,106.2501 l -26.93978,52.3556 -33.099,-0.3556 -33.099,-0.3556 -54.45517,-105.957 c -29.95034,-58.2763 -55.11321,-106.1763 -55.91748,-106.4444 -1.05462,-0.3516 -1.46232,38.204 -1.46232,138.2903 v 138.7778 H 605.87063 566.5373 Z m 558.6666,127.1966 c -23.3569,-3.5907 -34.5985,-10.1122 -47.4774,-27.5428 -15.4246,-20.8761 -17.5741,-51.8886 -5.2253,-75.3885 5.2409,-9.9735 15.6311,-21.5444 25.3508,-28.2318 3.3103,-2.2775 6.0186,-4.4694 6.0186,-4.871 0,-0.4016 -1.1055,-2.3227 -2.4566,-4.2693 -11.0593,-15.9326 -15.5079,-31.5133 -13.3819,-46.868 3.5078,-25.334 22.4027,-42.6711 46.5052,-42.6711 13.5523,0 22.8102,3.865 32.1988,13.4425 10.9177,11.1375 13.8025,19.0604 13.7964,37.8908 0,13.3102 -0.3324,15.2832 -3.5481,21.3333 -5.1637,9.7149 -12.1014,17.1736 -21.8202,23.4589 l -8.5702,5.5424 2.4953,3.4994 c 5.9844,8.3924 41.8049,54.1991 42.6303,54.515 1.4332,0.5486 10.7657,-16.1731 14.9319,-26.7545 2.2944,-5.8275 4.4531,-9.4399 5.4983,-9.2006 0.9464,0.2166 6.9089,2.5665 13.25,5.222 l 11.5291,4.8283 -1.8209,5.1611 c -3.0405,8.6176 -12.608,26.0998 -19.3291,35.3189 l -6.3494,8.7093 16.2824,20.8499 c 8.9554,11.4675 16.74,21.5999 17.2993,22.5166 0.7931,1.3 -2.7959,1.6667 -16.3139,1.6667 h -17.3307 l -9.6269,-11.3059 -9.627,-11.3059 -6.2642,4.5004 c -19.8883,14.2883 -43.4188,22.2946 -58.6446,19.9539 z m 25.5372,-32.9228 c 9.3155,-4.5205 21.4922,-14.0515 20.6744,-16.1824 -0.4412,-1.1499 -46.4485,-60.9842 -49.6379,-64.5561 -1.0586,-1.1856 -10.0584,5.7505 -17.4277,13.4316 -12.7694,13.3097 -16.5573,27.3274 -11.7547,43.4996 2.7905,9.3966 11.5576,19.8472 20.6496,24.6148 6.6871,3.5065 8.2333,3.7836 18.6258,3.337 8.9745,-0.3856 12.9021,-1.2482 18.8705,-4.1445 z m -12.8044,-122.2909 c 13.8173,-7.9055 19.7826,-18.8579 16.682,-30.6288 -2.6353,-10.0047 -10.16,-16 -20.0814,-16 -13.3527,0 -23.1335,12.3818 -20.571,26.0413 0.9921,5.2884 13.1674,24.6253 15.5051,24.6253 0.7744,0 4.5838,-1.817 8.4653,-4.0378 z M 511.87063,863.80768 v -24.66667 h 627.33327 627.3334 v 24.66667 24.66666 H 1139.2039 511.87063 Z m 659.33327,-41.57303 c -4.4,-4.09904 -13.7533,-12.62199 -20.7852,-18.93989 -7.0319,-6.31789 -24.7319,-22.30409 -39.3333,-35.52487 -14.6015,-13.22078 -41.5481,-37.56959 -59.8815,-54.10846 -18.3333,-16.53888 -46.8333,-42.26742 -63.33331,-57.17455 -16.5,-14.90713 -35.0944,-31.65832 -41.3209,-37.22487 -6.2265,-5.56655 -14.9265,-13.47328 -19.3333,-17.57051 -4.4068,-4.09724 -26.9124,-24.40818 -50.0124,-45.13544 -23.10003,-20.72725 -46.73039,-42.75826 -52.51195,-48.95778 l -10.51193,-11.27187 3.76138,-3.92603 c 2.06876,-2.15932 4.8423,-3.92604 6.16341,-3.92604 1.32112,0 17.25886,3.02448 35.41719,6.72106 18.1584,3.69658 43.2152,8.75914 55.6819,11.25014 24.3684,4.86913 169.33471,34.34133 196.42031,39.93301 l 16.4204,3.3899 32.9129,-3.39297 c 86.9814,-8.96682 117.83,-11.90666 118.2165,-11.2659 0.2316,0.38395 -17.0669,41.4981 -38.4412,91.36476 l -38.8623,90.66667 -11.8933,1.33333 -11.8932,1.33334 30.5599,28.62516 c 16.808,15.74384 35.0599,32.90408 40.5599,38.13387 5.5,5.22979 17.6481,16.64846 26.9958,25.37483 9.3477,8.72638 16.9977,16.31614 17,16.86614 0,0.55 -25.6458,0.97295 -56.9958,0.93988 l -57,-0.0601 z m 140.6101,4.57303 c -0.2587,-7.62341 0.2708,-48.32529 0.6334,-48.6879 0.2555,-0.25556 8.1803,0.6546 17.6106,2.02258 l 17.1459,2.48723 0.6667,17.92238 c 0.615,16.53406 0.7438,17.25103 1.6625,9.25571 0.5477,-4.76667 0.7639,-12.71667 0.4805,-17.66667 -0.5788,-10.10817 -1.185,-9.67225 10.6121,-7.6312 15.6276,2.70376 13.9116,-0.1732 13.9116,23.32327 v 20.64126 h -31.3334 c -24.1476,0 -31.3463,-0.38222 -31.3899,-1.66666 z m 273.0566,-4.62966 -11.6667,-0.47416 0.021,-11.61476 c 0.011,-6.38812 0.5422,-12.43854 1.18,-13.44539 0.9831,-1.55195 3.4664,-1.55195 16.3129,0 l 15.1533,1.83063 -0.231,12 -0.231,12 -4.4357,0.0889 c -2.4396,0.0489 -9.6856,-0.12445 -16.1023,-0.38525 z m 23,-10.9259 c 0,-6.54869 0.5852,-12.08852 1.3029,-12.33333 0.7166,-0.24445 6.7166,-0.25187 13.3333,-0.0165 l 12.0305,0.42796 v 11.90539 11.90537 h -13.3334 -13.3333 z m -212.0454,-37.77778 -0.045,-41.66666 -43.4423,-62.66667 c -23.8931,-34.46667 -44.0925,-64.16667 -44.8877,-66 -2.0759,-4.78637 -15.5599,-24 -16.843,-24 -0.5939,0 -1.8333,1.81924 -2.7543,4.04275 -0.921,2.22352 -1.9013,3.81607 -2.1783,3.539 -0.5392,-0.53914 9.9483,-24.98279 11.356,-26.46805 0.7952,-0.839 9.9671,11.22525 73.6586,96.8863 14.7218,19.8 32.2074,43.31218 38.8568,52.24929 l 12.0898,16.24928 9.0545,1.52725 c 4.9801,0.83999 9.9423,1.32781 11.0273,1.08405 1.3476,-0.30277 -4.0191,-8.49115 -16.9372,-25.84253 -54.6569,-73.41427 -68.4998,-92.0827 -69.4058,-93.60067 -0.792,-1.32702 18.2721,-1.66667 93.5477,-1.66667 h 94.5424 l -2.605,15 c -1.4327,8.25 -7.8157,45.6 -14.1845,83 l -11.5795,68 -23.2453,0.3661 c -13.0977,0.20629 -23.8239,0.94466 -24.5706,1.6914 -0.8782,0.87817 5.1773,7.83958 17.9488,20.6339 l 19.2742,19.3086 h -54.3161 -54.3161 z m -869.28094,22.64753 c 14.5728,-14.11091 32.83723,-31.42896 58.68849,-55.64753 11.35018,-10.63333 26.63696,-25.03738 33.97062,-32.009 7.33366,-6.97163 23.21614,-21.97163 35.29441,-33.33334 12.07826,-11.36171 27.37826,-25.799 34,-32.08286 6.62173,-6.28386 23.73952,-22.45625 38.03952,-35.93864 14.3,-13.48239 36.41586,-34.44105 49.14637,-46.5748 12.7305,-12.13375 23.86155,-22.4746 24.73567,-22.97969 1.73324,-1.0015 0.34222,-2.20751 69.49465,60.25167 25.5754,23.1 56.4283,50.9217 68.562,61.82601 12.1337,10.9043 24.7613,22.3051 28.0613,25.33509 3.3,3.02999 12,10.90829 19.3333,17.50732 7.3334,6.59903 13.6334,12.32066 14,12.71472 0.36671,0.39406 19.26671,17.4265 42.00001,37.84986 22.7333,20.42336 43.4092,39.13677 45.9463,41.58537 l 4.6129,4.45198 -3.8624,4.03149 c -7.4755,7.80283 -8.6156,7.1765 -42.7399,-23.47997 -16.843,-15.13131 -44.0734,-39.58131 -60.51221,-54.33334 -16.4387,-14.75203 -48.5575,-43.62187 -71.375,-64.1552 -22.8174,-20.53333 -52.1238,-46.83333 -65.12516,-58.44444 l -23.63887,-21.1111 -6.98615,6.30686 c -3.84238,3.46878 -20.78615,18.64357 -37.65281,33.72177 -16.86667,15.07819 -36.66667,32.89556 -44,39.59415 -7.33334,6.69858 -25.63334,23.16069 -40.66667,36.58246 -31.55695,28.17406 -37.12343,33.16181 -76.34779,68.41015 -15.95795,14.34035 -32.82449,29.41839 -37.4812,33.50676 l -8.46675,7.43339 -29.18546,-0.0191 -29.18547,-0.0191 z m 210.6597,-15.54159 v -26.56072 l 3.66667,-0.75473 c 2.01667,-0.41511 15.16401,-0.90527 29.21632,-1.08926 14.05231,-0.18399 25.2669,-0.79203 24.92131,-1.35121 -0.34559,-0.55918 1.35707,-0.97451 3.78368,-0.92297 3.67629,0.0781 3.96734,0.2848 1.74536,1.23962 -2.52983,1.08711 -2.53638,1.15071 -0.12757,1.23962 2.40608,0.0888 2.49367,0.98424 1.67207,17.09371 -0.47686,9.35 -0.86946,21.65 -0.87243,27.33334 l -0.005,10.33333 h -32 -32 z m 67.84654,25.56073 c -0.46416,-3.02457 0.35707,-40.73291 1.01633,-46.66667 l 0.77773,-7 10.1797,-0.2445 10.1797,-0.24451 -10.66666,-0.79083 c -5.86667,-0.43495 3.88324,-0.77493 21.66646,-0.75549 l 32.33313,0.0353 2e-4,28.33334 2e-4,28.33336 h -32.66666 c -17.96667,0 -32.73573,-0.45 -32.82013,-1 z m 862.1534,-49.20332 c -24.9333,-27.55171 -58.7223,-64.85258 -75.0867,-82.89082 l -29.7535,-32.79681 0.9023,-6.72119 c 0.4962,-3.69666 1.3114,-7.47521 1.8114,-8.39679 0.5822,-1.07291 11.7492,10.67662 31.0471,32.66667 57.6374,65.67802 101.8287,115.94347 115.4128,131.27635 7.5166,8.48439 13.6666,15.79511 13.6666,16.24604 0,0.45093 -2.85,0.79528 -6.3333,0.76522 l -6.3333,-0.0547 z m -51.6666,38.58552 -6.3334,-0.52831 v -9.33897 c 0,-5.75812 -0.5009,-9.02938 -1.3064,-8.53156 -0.7698,0.47578 -0.9687,4.03844 -0.4841,8.67415 0.8087,7.73787 0.7623,7.88179 -2.8369,8.78511 -3.8563,0.96788 -25.9035,-0.29589 -29.5458,-1.69361 -1.6999,-0.65229 -1.9671,-2.03622 -1.3137,-6.80337 0.4511,-3.29147 0.8203,-8.60075 0.8203,-11.7984 0,-7.19312 -1.752,-7.07959 34.3844,-2.22812 l 27.0512,3.63173 -0.3845,10.05791 -0.3845,10.05791 -6.6666,0.12192 c -3.6667,0.0671 -9.5167,-0.11582 -13,-0.40639 z m -256.3334,-12.87355 -9.3333,-1.50865 -0.3641,-22.82861 -0.3641,-22.82861 8.3641,1.89993 c 4.6003,1.04496 10.6141,2.49096 13.3641,3.21333 l 5,1.31341 -0.012,14.28194 c -0.01,7.85507 -0.3899,17.43194 -0.8524,21.28194 -0.9552,7.95268 -0.1837,7.7 -15.8027,5.17532 z m -16.7975,-2.75059 c -0.3164,-0.3164 -5.9664,-1.24198 -12.5555,-2.05685 -20.2927,-2.50954 -17.9803,0.842 -17.9803,-26.05995 0,-21.32742 0.1983,-23.30385 2.3333,-23.25992 2.7388,0.0563 31.024,6.17271 31.6057,6.83439 0.2181,0.24801 0.8244,10.50094 1.3474,22.78427 0.9142,21.47325 0.8521,22.33333 -1.6122,22.33333 -1.4097,0 -2.822,-0.25887 -3.1384,-0.57527 z M 737.20396,721.14101 v -28.66667 h 31.27292 31.27292 l 0.87346,4.65596 c 0.4804,2.56078 0.95759,14.96056 1.06042,27.55507 l 0.18695,22.89912 -23.66667,-0.32115 c -16.18289,-0.2196 -23.66666,0.1319 -23.66666,1.11159 0,0.87449 -3.37688,1.43275 -8.66667,1.43275 h -8.66667 z m 68.9115,21.16282 c -0.44471,-3.57288 -0.84542,-16.24615 -0.89044,-28.16282 l -0.0819,-21.66667 h 32.69707 32.6971 v 26.45802 26.45802 l -25.00002,0.84807 c -13.75,0.46645 -28.06299,1.23361 -31.80663,1.70481 l -6.80663,0.85672 z M 558.5373,608.01064 v -123.5363 h 65.33333 65.33333 v 61.08677 61.08676 l -11,10.52832 c -6.05,5.79057 -17.3,16.55789 -25,23.92737 -7.7,7.36948 -28.4,27.2112 -46,44.0927 -17.6,16.8815 -35.75,34.21647 -40.33333,38.52216 l -8.33333,7.82851 z M 545.20396,1811.6367 c 0,-0.9597 7.78446,-14.9998 9.68482,-17.4676 1.30149,-1.6901 3.15742,-1.0846 8.18222,2.6696 2.4737,1.8482 2.46087,2.0226 -0.5419,7.3653 -2.66661,4.7446 -3.94311,5.6583 -9.59933,6.8713 -7.66122,1.6431 -7.72581,1.6478 -7.72581,0.5614 z m 1085.81094,-12.3769 c -5.1179,-1.2904 -12.1952,-5.5595 -16.0843,-9.7022 -4.1539,-4.4247 -36.3944,-60.0028 -35.5757,-61.3275 0.3767,-0.6094 2.5213,-2.0577 4.766,-3.2184 3.4036,-1.7601 4.3574,-1.8139 5.7448,-0.3239 0.9149,0.9827 8.0667,12.8866 15.8927,26.4533 15.983,27.707 21.8974,34.6667 29.4601,34.6667 10.0207,0 16.6521,-6.2508 16.6521,-15.6963 0,-6.7212 0.01,-6.7014 -18.1514,-37.7715 -7.6443,-13.078 -14.2373,-24.6603 -14.651,-25.7384 -0.5062,-1.3193 0.9586,-2.8329 4.4806,-4.6297 l 5.2327,-2.6695 16.4038,28.0225 c 9.0221,15.4123 17.1908,30.2261 18.1527,32.9193 3.7163,10.4055 1.498,23.4969 -5.1977,30.6751 -6.3522,6.8099 -18.4466,10.5287 -27.1254,8.3405 z m -1101.476,-6.9377 c -2.38245,-1.5258 -4.09823,-3.1657 -3.81285,-3.6443 0.28538,-0.4785 4.82293,-8.0106 10.08345,-16.738 l 9.56458,-15.8679 3.29314,-26.7987 c 1.81122,-14.7393 3.59141,-28.1768 3.95597,-29.861 l 0.66283,-3.0623 5.2923,2.9745 c 2.91077,1.6359 5.28594,3.6139 5.27816,4.3956 -0.008,0.7816 -1.47321,10.7057 -3.25649,22.0535 -1.78329,11.3478 -3.06304,20.8117 -2.84388,21.0309 0.21915,0.2191 8.13457,-5.3076 17.58982,-12.2815 9.45525,-6.974 17.90707,-12.6879 18.78182,-12.6976 0.87475,-0.01 3.72793,1.2436 6.34041,2.785 l 4.74995,2.8026 -3.00707,2.3219 c -1.65389,1.277 -10.80708,7.6256 -20.34041,14.1079 -26.03014,17.6994 -26.25953,17.9191 -36.90937,35.3379 -5.36651,8.7774 -10.0573,15.9491 -10.42396,15.9372 -0.36667,-0.012 -2.61595,-1.27 -4.9984,-2.7957 z m -28.66827,-18.1082 c -2.75,-1.8885 -5,-4.2339 -5,-5.2121 0,-0.9781 1.8,-10.0138 4,-20.0793 2.2,-10.0655 4,-19.0321 4,-19.9258 0,-1.6059 -10.23039,-9.8556 -12.22189,-9.8556 -0.79186,0 -12.49618,16.071 -22.60228,31.0347 -0.79056,1.1706 -10.45868,-4.1972 -10.49266,-5.8256 -0.009,-0.435 2.86268,-4.935 6.38169,-10 3.51901,-5.065 15.32738,-22.1091 26.24084,-37.8758 10.91346,-15.7666 20.02909,-28.9115 20.25697,-29.2107 0.81788,-1.0739 23.82208,15.3385 29.95745,21.3733 5.07356,4.9903 6.44287,7.3469 7.19902,12.3892 2.32861,15.5283 -12.12324,32.6598 -27.62929,32.7523 -3.50218,0.021 -5.11234,0.6983 -5.61527,2.3626 -0.70356,2.3282 -7.47458,39.3476 -7.47458,40.866 0,1.4559 -1.93938,0.682 -7,-2.7932 z m 25.94465,-54.3297 c 3.11345,-1.3008 5.60613,-3.8132 7.70061,-7.7613 4.3842,-8.2643 3.13979,-11.6732 -6.98112,-19.1238 -13.21454,-9.728 -11.85083,-9.8521 -19.98051,1.8177 -3.95575,5.6784 -7.59072,10.9974 -8.07769,11.8201 -1.1193,1.8909 17.13373,14.4463 21.89789,15.0626 0.46045,0.06 2.90881,-0.7573 5.44082,-1.8153 z m 1163.17442,41.8248 c -10.6661,-2.6223 -16.4307,-8.1974 -31.2932,-30.2648 -11.8763,-17.6334 -14.3254,-26.4524 -10.835,-39.0164 2.4471,-8.8082 15.6535,-18.62 25.0621,-18.62 5.7701,0 15.31,3.6624 20.2225,7.7635 l 4.391,3.6658 -4.9012,3.7383 c -4.7679,3.6367 -5.0227,3.6807 -9.3681,1.6187 -7.5353,-3.5757 -13.6579,-2.7923 -18.8639,2.4137 -3.6989,3.6989 -4.5333,5.5517 -4.5333,10.0662 0,6.4758 1.7217,10.1047 12.0509,25.4004 10.6059,15.7054 14.2544,18.8953 22.5203,19.6896 6.2615,0.6016 7.0008,0.3385 11.3957,-4.0564 4.0719,-4.0719 4.7036,-5.5638 4.7282,-11.1665 0.026,-5.9858 0.4151,-6.7401 5.2267,-10.1431 l 5.1982,-3.6765 1.587,4.8083 c 2.5643,7.7701 1.1245,20.6532 -3.0056,26.8943 -5.8688,8.8684 -18.6525,13.5721 -29.5823,10.8849 z m 23.9181,-62.5826 c -15.7871,-19.8081 -28.6707,-36.4581 -28.6301,-37 0.1448,-1.9336 7.9217,-7.1455 9.3473,-6.2644 0.7989,0.4938 6.2717,6.9835 12.1618,14.4218 5.8901,7.4382 11.184,14.0344 11.7642,14.6583 1.076,1.157 25.3196,-17.4016 25.3196,-19.3822 0,-0.5984 -5.397,-7.8374 -11.9933,-16.0867 l -11.9932,-14.9988 4.2762,-3.6666 c 2.3519,-2.0167 4.656,-3.6667 5.1201,-3.6667 0.6943,0 51.2055,62.8352 56.9987,70.9055 1.5156,2.1115 1.256,2.8538 -2,5.7184 -2.058,1.8105 -4.3586,3.3108 -5.1123,3.334 -0.7538,0.023 -6.7538,-6.8315 -13.3334,-15.2327 -6.5795,-8.4011 -12.4288,-15.3011 -12.9983,-15.3333 -1.6564,-0.094 -25.0472,19.0317 -24.654,20.1583 0.1959,0.5611 5.6062,7.5827 12.0228,15.6036 6.4167,8.0208 11.6667,15.2016 11.6667,15.9573 0,1.303 -6.8938,6.8889 -8.502,6.8889 -0.4163,0 -13.6737,-16.2066 -29.4608,-36.0147 z m -1274.81649,30.075 -4.11266,-3.2415 7.06019,-37.0174 c 3.88311,-20.3596 6.87674,-37.2009 6.65252,-37.4251 -0.22421,-0.2242 -9.86574,10.973 -21.42561,24.8827 l -21.01795,25.2904 -4.52188,-3.6081 c -2.48703,-1.9844 -4.51252,-3.908 -4.50109,-4.2746 0.0178,-0.5693 55.44267,-67.7985 58.70282,-71.2052 0.67662,-0.707 3.01732,0.2166 5.66312,2.2346 l 4.50981,3.4398 -6.24774,33.0987 c -3.43626,18.2043 -6.70216,35.1238 -7.25755,37.5989 -0.62383,2.78 -0.52261,4.199 0.26483,3.7123 0.70105,-0.4332 10.44169,-11.8728 21.64588,-25.4213 l 20.37124,-24.6336 4.49666,3.5879 c 2.47316,1.9733 4.49667,3.9171 4.49669,4.3195 6e-5,1.112 -58.30686,71.1508 -59.56735,71.5528 -0.6046,0.1929 -2.94997,-1.108 -5.21193,-2.8908 z m -67.3443,-61.1363 c -3.6065,-1.8878 -7.55023,-5.5512 -10.20971,-9.484 -3.73603,-5.5248 -4.3293,-7.5359 -4.30405,-14.5907 0.0444,-12.3945 3.06607,-17.4439 21.5918,-36.0807 14.53266,-14.6198 17.19524,-16.719 23.62091,-18.6229 9.38961,-2.782 14.20981,-2.6712 20.758,0.4771 6.97037,3.3513 8.94803,5.0419 13.16209,11.2517 4.733,6.9745 4.87048,18.5066 0.3353,28.1255 -4.49095,9.5251 -34.01291,38.1541 -41.65208,40.3921 -8.53357,2.5002 -16.70482,1.9853 -23.30226,-1.4681 z m 20.91497,-11.6381 c 4.77491,-1.8154 25.19738,-21.6638 30.05857,-29.2136 11.87909,-18.4492 -6.09889,-34.0141 -24.05926,-20.83 -7.29216,5.3529 -21.66899,20.3596 -25.63472,26.7577 -8.42581,13.5938 4.57513,29.0118 19.63541,23.2859 z m 1396.36812,-18.5622 -33.8262,-33.1626 4.093,-4.1812 4.0931,-4.1813 29.1593,12.761 c 16.0376,7.0186 29.5545,12.5989 30.0375,12.4007 0.483,-0.1982 -5.2899,-13.4177 -12.8288,-29.3768 l -13.707,-29.0165 3.9031,-4.2733 3.9031,-4.2733 6.9175,6.6231 c 3.8046,3.6428 19.1171,18.5848 34.0277,33.2046 l 27.1104,26.5815 -4.3103,4.447 -4.3102,4.447 -20.33,-20.2982 c -11.1815,-11.164 -20.5743,-20.0268 -20.873,-19.6951 -0.2986,0.3316 3.8954,10.1761 9.3201,21.8765 l 9.863,21.2734 -3.7009,3.6279 -3.7009,3.628 -20.6295,-9.2471 c -11.3462,-5.0859 -21.1009,-9.09 -21.6772,-8.8979 -0.5763,0.1921 7.957,8.9422 18.9628,19.4446 11.0058,10.5025 20.0106,19.6971 20.0106,20.4324 0,0.7354 -1.7283,3.0653 -3.8406,5.1775 l -3.8405,3.8406 z M 329.87063,1621.9869 c -11.4229,-5.2024 -21.96322,-21.7473 -21.98697,-34.5125 l -0.013,-7 h 6.66667 c 6.31265,0 6.66666,0.1865 6.66666,3.512 0,9.8389 7.77221,22.4133 15.94645,25.7992 3.20048,1.3257 4.87507,1.3387 7.95716,0.062 10.21302,-4.2304 11.30892,-12.1848 3.46083,-25.1198 -6.62416,-10.9177 -7.58845,-18.8612 -3.35199,-27.6125 5.53377,-11.4312 19.10001,-18.3549 31.43169,-16.0415 9.78277,1.8353 20.46139,15.3267 23.03501,29.1026 1.28253,6.8651 1.53603,6.6086 -8.14581,8.2419 -4.782,0.8068 -5.00128,0.681 -5.02929,-2.8835 -0.075,-9.542 -9.82514,-21.7271 -17.38531,-21.7271 -4.61656,0 -11.47274,5.8085 -12.59048,10.6666 -0.54581,2.3723 0.97817,6.7479 5.28574,15.1762 3.93823,7.7056 6.04244,13.5279 6.02339,16.6666 -0.0821,13.5181 -14.85135,28.2177 -28.26123,28.128 -2.40689,-0.016 -6.77616,-1.1224 -9.70949,-2.4583 z m 1534.54627,-28.1852 c -11.7343,-5.9659 -36.3823,-27.2813 -40.223,-34.7846 -3.8826,-7.585 -4.4285,-19.8934 -1.1625,-26.2091 5.0096,-9.6874 14.0002,-15.2638 24.7136,-15.3286 9.3683,-0.057 15.4071,2.4884 26.6048,11.2124 26.8061,20.8845 32.1875,27.8974 32.1875,41.9463 0,21.8604 -21.4652,33.6649 -42.1204,23.1636 z m 20.8307,-11.3498 c 4.4579,-2.3053 7.9563,-8.187 7.9563,-13.3764 0,-6.8745 -4.3112,-12.7576 -16.8967,-23.0574 -15.5668,-12.7398 -19.4855,-14.877 -27.2777,-14.877 -5.487,0 -6.7187,0.5726 -10.503,4.8826 -3.866,4.4032 -4.2254,5.5235 -3.6599,11.4088 0.7197,7.4901 3.471,10.8838 19.5263,24.0851 15.7176,12.9235 22.4169,15.2976 30.8547,10.9343 z m -1592.5103,-1.1671 -3.44984,-4.523 6.70108,-8.8519 6.70108,-8.8519 -8.94887,-12.2918 c -4.92188,-6.7605 -9.09691,-12.4825 -9.27785,-12.7157 -0.18094,-0.2331 -4.96728,1.2227 -10.6363,3.2353 l -10.30731,3.6592 -3.78846,-4.5686 c -2.08366,-2.5128 -3.80461,-4.8687 -3.82433,-5.2354 -0.0197,-0.3668 21.01864,-7.8083 46.75192,-16.5367 l 46.78779,-15.8698 3.0853,3.8693 c 1.69691,2.1281 2.7355,4.4696 2.30797,5.2033 -2.96947,5.0961 -56.85258,78.0007 -57.64955,78.0007 -0.55154,0 -2.55522,-2.0354 -4.45263,-4.523 z m 30.97399,-49.3403 c 6.71578,-8.7248 11.97456,-16.0993 11.68616,-16.3877 -0.74231,-0.7423 -38.20338,13.1014 -38.14725,14.0973 0.068,1.2068 13.43686,19.1279 13.87646,18.6016 0.20576,-0.2464 5.86884,-7.5864 12.58463,-16.3112 z m 1565.10001,-5.1367 c -21.0066,-14.1167 -38.2119,-26.1443 -38.2339,-26.7281 -0.08,-2.1142 18.8361,-28.8779 22.7202,-32.1462 14.69,-12.3608 42.4597,1.4308 43.0483,21.3796 l 0.1914,6.4868 21.9041,3.6859 c 12.0473,2.0272 22.1156,3.8972 22.3739,4.1556 0.8976,0.8975 -6.761,11.4997 -8.3069,11.4997 -0.8553,0 -10.4987,-1.8177 -21.4298,-4.0393 l -19.8747,-4.0394 -2.8929,3.5937 c -3.535,4.3912 -6.4195,9.6398 -5.6646,10.3073 0.3066,0.2711 7.4575,5.1664 15.8909,10.8785 8.4333,5.712 15.5517,10.5595 15.8187,10.7722 0.7443,0.593 -5.2334,9.8603 -6.3602,9.8603 -0.5449,0 -18.1779,-11.55 -39.1845,-25.6666 z m 6.8077,-20 c 8.5994,-12.5704 9.7415,-16.9179 6.229,-23.7103 -3.2231,-6.2328 -12.0847,-9.6223 -18.6101,-7.1183 -1.9048,0.731 -15.3673,19.1967 -15.3673,21.0784 0,0.8755 21.6223,15.4168 22.9241,15.4168 0.5213,0 2.6922,-2.55 4.8243,-5.6666 z m -1647.8633,10.7747 c -2.26143,-4.4328 -2.45186,-5.6847 -1.00444,-6.603 0.98232,-0.6233 11.85561,-7.2223 24.16286,-14.6646 12.30726,-7.4422 22.12689,-13.7812 21.8214,-14.0867 -0.30548,-0.3055 -10.60733,1.3613 -22.89299,3.704 l -22.33757,4.2594 -2.45419,-3.1919 c -1.3498,-1.7556 -2.46752,-4.0057 -2.48383,-5.0004 -0.0163,-0.9946 5.87027,-9.3946 13.08127,-18.6667 7.211,-9.272 13.5546,-17.6214 14.09688,-18.5543 0.54229,-0.9328 -9.87945,4.9172 -23.15942,13 -13.27997,8.0829 -24.6643,14.6961 -25.29852,14.6961 -1.11477,0 -7.25448,-9.4128 -6.4707,-9.9203 1.35272,-0.8758 79.2223,-47.9243 79.92365,-48.2895 0.47821,-0.2491 2.14786,1.7138 3.71033,4.362 l 2.84087,4.815 -3.63214,4.8497 c -1.99768,2.6674 -10.77975,14.0374 -19.51572,25.2666 -8.73596,11.2293 -15.55547,20.745 -15.15447,21.146 0.401,0.401 13.81342,-1.7451 29.80538,-4.769 15.99195,-3.0239 30.06701,-5.4896 31.27791,-5.4793 2.30305,0.02 8.35377,8.8632 6.7314,9.8384 -0.51317,0.3084 -10.53303,6.4203 -22.26636,13.582 -11.73334,7.1616 -29.58134,18.006 -39.66223,24.0987 l -18.32889,11.0776 z m 1716.7273,-24.2809 c -1.4368,-0.9982 -19.4124,-11.5952 -39.9457,-23.549 -20.5334,-11.9537 -37.5594,-21.9076 -37.8357,-22.1196 -0.2763,-0.212 5.4094,-10.5546 12.6349,-22.9836 13.1309,-22.5873 13.1388,-22.5974 16.5023,-20.8215 9.0453,4.7756 9.0987,3.8409 -1.2195,21.3516 -5.1729,8.7789 -9.4075,16.6591 -9.4103,17.5116 0,1.2963 19.811,13.7833 21.8724,13.7833 0.3676,0 4.3507,-6.3 8.8513,-14 4.5007,-7.7 8.6936,-14 9.3176,-14 0.624,0 3.221,1.2311 5.7711,2.7357 l 4.6366,2.7356 -8.6756,14.7047 c -4.7716,8.0875 -8.4738,14.8749 -8.2271,15.083 1.8175,1.533 22.2951,12.7362 23.2463,12.7179 0.6613,-0.013 5.5794,-7.5359 10.9291,-16.7182 l 9.7267,-16.6951 5.2733,2.9637 c 2.9003,1.6301 5.2732,3.5471 5.2732,4.26 0,1.2725 -23.3288,41.9316 -25.1694,43.867 -0.5165,0.5432 -2.1147,0.171 -3.5515,-0.8271 z M 162.03698,1077.1823 c -6.77416,-2.4147 -13.61452,-9.1738 -16.23916,-16.0463 -1.75544,-4.5966 -2.03548,-10.8422 -1.68316,-37.539 l 0.42264,-32.02501 3.64503,-5.2155 c 12.88353,-18.43425 39.3902,-15.90335 47.26842,4.5134 2.0801,5.3907 2.41988,10.48351 2.41988,36.27121 0,27.8044 -0.20796,30.4497 -2.84155,36.1446 -3.05766,6.612 -9.09954,11.9079 -16.35741,14.3379 -5.84709,1.9577 -10.23063,1.8414 -16.63469,-0.4413 z m 18.18211,-16.4637 c 3.7782,-3.7782 4.86529,-11.5313 4.895,-34.9108 0.0302,-23.7908 -1.06526,-30.14981 -5.91468,-34.33341 -3.74934,-3.2345 -10.97327,-3.9976 -15.40263,-1.6271 -5.81168,3.1103 -6.5956,7.5289 -6.54557,36.89431 0.0504,29.5983 0.57229,32.3707 6.76618,35.9447 4.20338,2.4255 12.85981,1.3742 16.2017,-1.9677 z m 1859.65151,-22.2442 c 0,-43.23681 -0.1908,-44.41911 -6.1118,-37.8765 -1.3888,1.5346 -3.5817,3.3557 -4.8733,4.0469 -2.1063,1.1273 -2.3442,0.5308 -2.309,-5.79011 0.039,-6.9394 0.1445,-7.1232 6.9365,-12.0469 5.4242,-3.9323 8.1208,-5 12.6274,-5 h 5.7302 v 48.66661 48.6667 h -6 -6 z m 49.3333,39.5533 c 0,-0.6124 6.6,-19.0113 14.6667,-40.8866 8.0667,-21.8753 14.6667,-40.21781 14.6667,-40.76121 0,-0.5434 -5.4,-1.0458 -12,-1.1166 l -12,-0.1286 v 7.33651 7.3366 h -6 -6 v -14.00001 -14 h 25.3333 25.3333 v 6.9325 c 0,5.4776 -2.8315,14.64211 -13.4917,43.66671 -19.3242,52.6141 -16.3062,46.7341 -23.9864,46.7341 -3.587,0 -6.5219,-0.501 -6.5219,-1.1134 z M 77.203969,1071.1566 c 0,-6.4749 0.50768,-7.3342 19.15211,-32.4157 21.801241,-29.3283 22.181221,-29.9378 22.181221,-35.5784 0,-12.00511 -11.98295,-18.67951 -21.442941,-11.94341 -2.12003,1.5096 -4.34808,4.6596 -4.95123,7 -1.04054,4.03771 -1.45892,4.27621 -8.18041,4.66401 l -7.08379,0.4086 0.9405,-5.01331 c 3.57915,-19.07845 21.2143,-29.42945 37.384531,-21.94285 13.42854,6.21725 19.60685,20.83435 15.32357,36.25366 -0.73053,2.6299 -8.83897,14.9299 -18.01876,27.3334 l -16.690531,22.5518 18.026191,0.371 18.0262,0.371 v 7.2957 7.2957 H 104.5373 77.203969 Z M 1946.7299,737.66557 l -2.8296,-6.80876 31.113,-40.19124 c 17.1122,-22.10517 30.7452,-40.34467 30.2956,-40.53221 -0.4496,-0.18754 -14.9072,5.73369 -32.1279,13.15829 -17.2207,7.4246 -35.4011,15.21078 -40.4007,17.30262 l -9.0904,3.80334 -3.2995,-7.46071 c -1.8147,-4.10338 -3.124,-7.61193 -2.9096,-7.79676 0.5518,-0.4757 115.7355,-49.99913 116.2901,-49.99913 0.2512,0 1.7825,3.26661 3.4029,7.25913 l 2.9463,7.25914 -31.2974,40.40753 c -17.2136,22.22414 -31.1526,40.57464 -30.9756,40.77887 0.1769,0.20424 18.4707,-7.44576 40.6528,-17 22.1821,-9.55423 40.785,-17.37134 41.3398,-17.37134 1.5773,0 6.8736,13.69544 5.7237,14.8004 -1.4816,1.4235 -112.6397,49.1996 -114.4701,49.1996 -0.8436,0 -2.8072,-3.06394 -4.3634,-6.80877 z M 265.20396,663.04052 C 253.8373,657.15159 227.59367,643.63256 206.8848,632.99824 l -37.6525,-19.33513 3.47956,-6.92772 c 1.91377,-3.81024 3.64014,-7.11046 3.83639,-7.33382 0.19625,-0.22336 19.3926,1.72664 42.65856,4.33333 23.26596,2.6067 43.77477,4.73944 45.57514,4.73944 3.5345,0 3.92138,0.46083 -40.63914,-48.40617 l -17.72783,-19.4411 3.41695,-6.74303 c 1.87933,-3.70867 4.10078,-6.74303 4.93657,-6.74303 0.8358,0 13.57569,6.22109 28.31088,13.82465 14.73519,7.60355 40.59125,20.89987 57.45792,29.54737 16.86666,8.6475 30.857,15.86675 31.08964,16.04277 0.37338,0.28253 -6.08319,13.84769 -7.16697,15.05769 -0.23276,0.25987 -17.11058,-8.07331 -37.50627,-18.51817 -28.63993,-14.66682 -36.29715,-18.11373 -33.63125,-15.13914 1.89849,2.11832 12.25641,13.60583 23.01758,25.52779 l 19.56576,21.6763 -3.37908,6.66829 c -3.29782,6.50795 -3.49862,6.65106 -8.35091,5.95185 -11.83088,-1.70482 -60.99548,-7.0602 -61.37072,-6.68496 -0.22697,0.22697 15.66992,8.65363 35.32643,18.7259 19.65652,10.07227 36.00791,18.55846 36.33643,18.85819 0.69046,0.62997 -6.92918,15.13154 -7.93064,15.09347 -0.36667,-0.0139 -9.96667,-4.84356 -21.33334,-10.73249 z M 1907.8706,634.71084 c -15.806,-5.46755 -25.7143,-18.38727 -25.7143,-33.52962 0,-15.89092 6.8701,-27.98256 21.5275,-37.8893 8.1855,-5.53245 34.9656,-20.72621 43.5201,-24.69125 7.5839,-3.51513 21.1965,-4.2701 30.1358,-1.67137 21.6698,6.2996 32.2522,31.20259 22.0706,51.93755 -5.1851,10.55938 -10.7555,15.568 -30.2064,27.16011 -28.3749,16.91053 -34.9549,19.74031 -46.597,20.03944 -5.5383,0.1423 -12.1696,-0.4677 -14.7363,-1.35556 z M 1945.1,610.33956 c 30.551,-16.15123 39.2834,-24.2477 39.2834,-36.42272 0,-12.60607 -8.5658,-20.73639 -21.8353,-20.72519 -6.3094,0.005 -9.2228,1.00698 -20.6775,7.10926 -21.7251,11.57363 -35.0008,20.96112 -38.0244,26.88785 -5.0612,9.92077 -2.7762,21.87174 5.2576,27.49884 9.0665,6.35041 17.7415,5.30254 35.9962,-4.34804 z m -94.4181,-49.93311 c -2.4871,-3.66619 -4.2871,-6.85157 -4,-7.07863 3.9178,-3.09813 101.6931,-70.44973 102.8798,-70.86782 2.0917,-0.7369 10.6233,11.56661 9.0864,13.10355 -1.7284,1.72834 -102.0097,71.49341 -102.7775,71.50159 -0.3667,0.004 -2.7016,-2.9925 -5.1887,-6.65869 z M 328.84992,552.42432 c -8.23869,-2.05158 -14.71253,-5.96158 -33.98718,-20.52725 -30.84986,-23.31293 -36.99421,-31.15861 -38.51784,-49.18314 -0.74687,-8.83543 -0.46515,-10.59311 2.8995,-18.09055 6.47662,-14.43184 19.23606,-22.8157 34.7233,-22.8157 6.6837,0 24.5696,4.56127 24.5696,6.26575 0,0.45389 -2.39674,3.99971 -5.32607,7.87959 -5.15124,6.82277 -5.46068,7.00741 -9.42648,5.62492 -9.11946,-3.17906 -19.88806,0.75335 -25.54287,9.32758 -3.51464,5.32916 -3.16229,16.90621 0.7092,23.3015 5.77421,9.53841 40.09423,35.74276 51.18352,39.08015 14.08282,4.2383 28.38467,-5.14622 28.39771,-18.63387 0.003,-2.83491 -0.99651,-7.97416 -2.22056,-11.42056 l -2.22555,-6.26617 5.43187,-6.87182 5.43187,-6.87183 3.54515,4.64793 c 8.91375,11.68653 12.10499,27.03826 8.11668,39.04594 -2.94671,8.87172 -12.12859,19.05874 -20.37617,22.60675 -7.6161,3.27636 -20.42779,4.63342 -27.38568,2.90078 z M 1814.7319,512.98405 c -2.4596,-3.35442 -3.9596,-6.55464 -3.3333,-7.1116 0.8448,-0.75131 81.5134,-65.39385 84.2827,-67.53862 0.2625,-0.20332 -3.8329,-5.59948 -9.1008,-11.99146 l -9.578,-11.62179 5.7674,-5.08599 c 3.172,-2.79729 6.4645,-4.9527 7.3166,-4.78978 0.852,0.16291 12.118,13.4962 25.0354,29.62953 l 23.4862,29.33334 -5.7021,4.99639 c -3.1361,2.74802 -6.3021,4.9913 -7.0354,4.98507 -0.7333,-0.006 -5.3967,-5.10585 -10.363,-11.3325 l -9.0296,-11.32118 -41.988,33.66944 c -23.0934,18.51819 -42.73,33.80639 -43.637,33.97378 -0.907,0.16738 -3.6615,-2.4402 -6.1211,-5.79463 z m -36.2033,-47.08883 c -9.6771,-2.94366 -17.6035,-9.91053 -22.8541,-20.08754 -2.4293,-4.7086 -3.0963,-8.154 -3.0989,-16.00769 -0.01,-15.83706 3.6769,-22.04613 26.3599,-44.45126 27.0428,-26.7116 35.3535,-31.34193 53.6218,-29.87553 10.564,0.84797 18.7323,5.32064 25.2098,13.80394 6.3131,8.26808 7.8789,13.77253 7.1498,25.13417 -0.4653,7.25068 -1.5559,11.30799 -4.497,16.73053 -2.1354,3.9372 -4.5437,7.36804 -5.3516,7.62408 -0.808,0.25604 -3.7111,-2.27068 -6.4515,-5.61493 -4.5802,-5.58955 -4.8653,-6.41664 -3.531,-10.24419 0.7983,-2.29005 1.4515,-6.99702 1.4515,-10.45994 0,-5.40484 -0.7206,-7.10822 -5.0898,-12.03167 -4.744,-5.34579 -5.6343,-5.77484 -13.1047,-6.3152 -11.0063,-0.79612 -15.5702,1.8046 -33.768,19.24237 -19.9718,19.13783 -23.3344,24.10054 -23.3526,34.46532 -0.011,6.15314 0.6719,8.96243 2.9575,12.16895 5.2824,7.4106 16.2376,10.50505 25.1691,7.10932 3.346,-1.27215 4.1869,-0.86125 10.0436,4.90741 l 6.392,6.2958 -3.6236,2.19447 c -9.4636,5.73126 -24.5834,8.16411 -33.6322,5.41159 z M 401.05591,438.14101 c -14.2914,-15.21667 -34.50713,-36.77033 -44.92385,-47.89703 l -18.93949,-20.23035 16.39771,-15.46 c 22.45061,-21.16675 24.44928,-22.41428 37.08174,-23.14556 8.82864,-0.51109 11.23506,-0.13952 17.38928,2.68503 15.92265,7.30787 26.96102,23.5304 27.02319,39.71458 0.0454,11.82511 -3.41513,17.96513 -18.03539,32 l -11.80605,11.33333 17.31379,18.56327 c 9.52259,10.2098 17.31379,19.01305 17.31379,19.56277 0,1.13474 -10.6979,10.54063 -11.98852,10.54063 -0.46302,0 -12.53481,-12.45 -26.8262,-27.66667 z m 14.15125,-58.53484 c 1.09824,-2.31083 1.98363,-5.61083 1.96752,-7.33333 -0.0773,-8.26932 -10.21834,-21.30525 -18.11596,-23.28743 -6.37968,-1.60119 -13.55026,1.89303 -24.41475,11.89731 -5.729,5.27539 -10.64668,9.97778 -10.92818,10.44976 -0.28151,0.47197 5.9861,7.8179 13.928,16.32428 l 14.43983,15.46615 10.56337,-9.65761 c 5.80985,-5.31169 11.46192,-11.5483 12.56017,-13.85913 z m 58.91839,27.20151 c -1.82567,-5.31667 -12.37989,-34.12935 -23.45382,-64.02818 -11.07394,-29.89883 -20.13443,-54.84712 -20.13443,-55.44064 0,-0.59352 2.55429,-2.91349 5.67621,-5.15548 l 5.67622,-4.07635 29.99045,20.91984 c 16.49475,11.50591 42.1414,29.36486 56.99256,39.68655 l 27.00211,18.76671 -7.28769,5.62241 -7.28768,5.62241 -11.48433,-8.29066 c -6.31638,-4.55986 -12.29594,-8.36625 -13.28791,-8.45863 -2.44284,-0.22752 -33.98994,24.23302 -33.98994,26.35462 0,0.92671 2.1,7.0341 4.66666,13.57199 2.56667,6.53789 4.66667,12.61371 4.66667,13.50183 0,1.60719 -11.45849,11.07024 -13.40458,11.07024 -0.56161,0 -2.51484,-4.35 -4.3405,-9.66666 z m 12.7726,-56 c 5.97855,-4.58334 11.71094,-8.97488 12.73865,-9.75898 1.47252,-1.12347 -3.22297,-5.15057 -22.15348,-19 -13.21212,-9.6659 -24.29175,-17.57436 -24.6214,-17.57436 -0.32964,0 3.80952,10.95 9.19813,24.33334 11.97647,29.74511 12.23233,30.33333 13.19404,30.33333 0.42569,0 5.66551,-3.75 11.64406,-8.33333 z M 1708.5373,399.0959 c -8.1801,-1.18603 -14.8025,-4.97258 -21.2621,-12.15728 -10.9346,-12.16185 -13.1144,-28.97431 -5.6873,-43.86384 2.832,-5.67748 50.7537,-66.30958 58.6499,-74.20572 1.3872,-1.38721 2.887,-0.73205 8.0042,3.49655 l 6.2971,5.20363 -26.0883,31.78588 c -14.3485,17.48224 -27.6346,34.38486 -29.5247,37.56139 -9.4005,15.79897 0.4761,33.98502 18.4914,34.04869 4.4958,0.0159 7.6715,-0.94277 11.4868,-3.46766 3.0271,-2.00319 16.8507,-17.70643 32.4531,-36.86564 14.9489,-18.3568 27.7799,-33.38395 28.5132,-33.39366 0.7333,-0.01 3.8662,2.21444 6.9619,4.94256 l 5.6286,4.96021 -23.9658,29.33333 c -29.2828,35.84113 -37.5689,44.75738 -45.1928,48.62965 -6.7975,3.45255 -17.0676,5.108 -24.7652,3.99191 z m -67,-46.15098 c -3.85,-2.61067 -6.9922,-5.43455 -6.9826,-6.27529 0.01,-0.84074 2.3062,-13.96188 5.1037,-29.15809 l 5.0864,-27.62946 -8.3043,-5.37054 c -4.5674,-2.95379 -8.8141,-5.36375 -9.4371,-5.35546 -0.6231,0.008 -7.3401,9.60826 -14.9267,21.33328 -7.5866,11.72501 -14.3316,21.65053 -14.9888,22.05669 -1.8976,1.17279 -13.4949,-7.42522 -12.7242,-9.43352 0.87,-2.2671 64.7433,-100.71458 66.8747,-103.07351 1.3003,-1.43907 5.1729,0.56714 20.7818,10.76591 20.6859,13.51607 28.1989,20.57326 30.4209,28.57504 6.2088,22.35925 -12.8153,48.37164 -35.4079,48.41468 l -6.8375,0.013 -2.9217,19 c -1.607,10.45 -3.6489,23.75624 -4.5376,29.56943 -0.8886,5.81319 -2.197,10.73707 -2.9074,10.94196 -0.7105,0.20489 -4.4417,-1.76347 -8.2917,-4.37415 z m 39.9004,-79.06708 c 8.1386,-9.17096 8.1395,-18.14761 0,-25.76583 -4.0433,-3.78564 -22.3132,-15.63767 -24.1054,-15.63767 -0.91,0 -12.8677,17.59305 -20.4499,30.0874 -0.6583,1.08477 3.3259,4.35776 12,9.85808 12.5065,7.93041 13.2537,8.21367 20.2551,7.67895 6.5763,-0.50225 7.7492,-1.09559 12.2975,-6.22093 z M 555.71531,332.80768 c -5.53238,-9.35 -20.72549,-34.92454 -33.76247,-56.8323 -18.31311,-30.77394 -23.29183,-40.09676 -21.89291,-40.99522 0.99589,-0.6396 10.82853,-6.5585 21.85033,-13.1531 22.55668,-13.4962 28.51715,-15.40089 39.90842,-12.7529 22.41191,5.20982 36.95492,34.64648 26.91473,54.47838 -3.76869,7.44412 -6.50515,4.56225 24.80389,26.12196 13.01666,8.9634 23.65423,16.71021 23.63904,17.21513 -0.0152,0.50493 -3.76519,3.10884 -8.33333,5.78647 l -8.30571,4.86842 -5.33334,-3.96925 c -2.93333,-2.18308 -13.97136,-10.34172 -24.52895,-18.1303 l -19.19562,-14.16107 -8.57156,4.57971 c -4.71435,2.51884 -9.03891,5.18669 -9.61014,5.92856 -0.57882,0.75173 5.30737,11.95476 13.29659,25.30708 l 14.33518,23.95825 -7.26285,4.37509 c -3.99458,2.4063 -7.40451,4.37509 -7.57765,4.37509 -0.17313,0 -4.84128,-7.65 -10.37365,-17 z m 1.03245,-64 c 7.68011,-4.57841 13.85129,-9.27794 15.32006,-11.66667 3.21573,-5.22987 3.14672,-14.11206 -0.15999,-20.59375 -6.95744,-13.6377 -16.23,-14.18774 -36.38785,-2.15848 -7.14048,4.2611 -12.98268,7.92347 -12.98268,8.13861 0,0.61654 17.56104,30.42287 19.01862,32.28029 0.71934,0.91666 1.53816,1.66666 1.81959,1.66666 0.28143,0 6.29894,-3.45 13.37225,-7.66666 z m 980.67134,23.04141 c -3.1817,-1.74165 -6.0985,-3.48034 -6.482,-3.86376 -0.3834,-0.38342 10.4576,-22.58035 24.0912,-49.32652 l 24.7883,-48.6294 -5.6397,-3.27807 c -3.1018,-1.80294 -8.9396,-4.92501 -12.973,-6.93794 -4.0333,-2.01292 -7.5118,-3.81621 -7.73,-4.00731 -0.2182,-0.19109 1.24,-3.68473 3.2405,-7.76364 l 3.6372,-7.41619 32.7595,16.57716 c 18.0177,9.11744 33.5476,17.09223 34.5109,17.72176 1.3869,0.90637 0.9926,2.69177 -1.8944,8.57811 l -3.6457,7.43352 -13.2455,-6.64692 c -7.2851,-3.6558 -13.5974,-6.29509 -14.0274,-5.86508 -0.43,0.43001 -11.7151,22.19974 -25.0779,48.37718 -13.3629,26.17745 -24.7981,47.73449 -25.4117,47.90455 -0.6135,0.17005 -3.7186,-1.1158 -6.9003,-2.85745 z M 653.84633,268.14101 c -6.4818,-13.38333 -17.65008,-36.47663 -24.81839,-51.31844 l -13.0333,-26.98511 -13.06201,6.11001 c -7.1841,3.36051 -13.67769,6.36646 -14.4302,6.6799 -1.61647,0.67329 -8.91398,-14.4362 -7.55899,-15.65087 0.77207,-0.69213 65.76515,-32.10421 70.41887,-34.03445 0.82043,-0.3403 2.59482,1.96526 3.94311,5.12346 1.34828,3.15819 2.92217,6.83132 3.49753,8.16251 0.89298,2.06603 -1.00175,3.39859 -12.9431,9.10285 -7.69407,3.67538 -13.98922,6.82973 -13.98922,7.00968 0,0.17994 11.1,23.32398 24.66667,51.4312 13.56666,28.10722 24.66666,51.3036 24.66666,51.54752 0,0.66642 -13.0666,7.15507 -14.40861,7.15507 -0.64016,0 -6.46722,-10.95 -12.94902,-24.33333 z m 66.1743,-5.33333 c -1.1569,-3.10624 -15.30171,-42.37222 -32.76651,-90.95984 -5.52759,-15.37792 -10.05016,-28.60367 -10.05016,-29.39056 0,-0.78689 3.30558,-2.55431 7.34573,-3.9276 7.25879,-2.46734 7.38109,-2.46533 10.33333,0.1697 1.64319,1.46662 18.28761,16.06975 36.98761,32.45139 18.7,16.38164 35.74256,31.33102 37.87236,33.22085 3.34467,2.96782 3.73636,3.07267 2.87432,0.76939 -0.54892,-1.46667 -7.48493,-20.66667 -15.41335,-42.66667 -7.92842,-22 -14.80998,-40.98204 -15.29235,-42.18232 -0.69927,-1.73994 0.80872,-2.75162 7.43913,-4.99074 4.5739,-1.54463 8.41167,-2.66259 8.52838,-2.48435 0.11671,0.17825 9.87629,27.33051 21.68794,60.33836 11.81165,33.00785 21.85011,60.9899 22.30769,62.18232 0.65393,1.70412 -0.84764,2.73525 -7.01718,4.81874 l -7.84914,2.6507 -37.90224,-33.30271 c -20.84622,-18.3165 -39.03197,-34.29135 -40.41276,-35.49969 -2.39033,-2.09178 -2.46252,-2.03737 -1.50772,1.13636 0.55155,1.83333 7.5555,21.57913 15.56433,43.87954 8.00883,22.30041 14.0873,40.97066 13.50772,41.48945 -0.90158,0.80699 -13.32643,5.29768 -14.65765,5.29768 -0.25418,0 -0.96495,-1.35 -1.57948,-3 z m 742.80217,-3.52149 c -13.1841,-4.55401 -26.7175,-16.0176 -32.7554,-27.74563 -1.2082,-2.34692 -2.1968,-4.53964 -2.1968,-4.87273 0,-0.78714 14.8371,-9.16708 15.252,-8.61428 0.1737,0.23144 2.1923,3.19863 4.4856,6.59375 5.3101,7.86106 16.7839,15.51788 26.2193,17.49697 6.2061,1.30176 7.9865,1.19974 11.9366,-0.68396 5.5154,-2.6301 8.6098,-6.94602 9.6717,-13.48958 1.3781,-8.49262 -1.4372,-12.35765 -15.7407,-21.60989 -14.1757,-9.16958 -18.6393,-14.39732 -21.2341,-24.86933 -1.9073,-7.69765 -0.8669,-15.52974 3.2358,-24.35964 10.9315,-23.52687 33.722,-28.64608 56.8717,-12.77454 6.1245,4.19905 17.2723,16.34429 17.2954,18.84303 0,0.39931 -3.0417,3.05075 -6.7675,5.89208 l -6.7742,5.16606 -6.6051,-6.88843 c -12.4976,-13.0337 -26.4271,-16.6427 -34.4751,-8.93221 -5.387,5.16104 -7.3478,11.38136 -5.4246,17.20859 1.8094,5.48263 3.8847,7.44339 17.8106,16.82789 11.5871,7.80838 16.0149,13.07296 18.3922,21.86805 4.2174,15.60202 -5.4375,37.99934 -19.2662,44.69368 -7.2689,3.51886 -20.1563,3.62655 -29.9312,0.25012 z m -62.5661,-23.28318 c -3.0876,-0.84077 -6.1649,-2.12867 -6.8384,-2.862 -0.6735,-0.73333 -6.1695,-22.63333 -12.2132,-48.66667 -6.0438,-26.03333 -11.3988,-48.09837 -11.9,-49.03341 -0.5012,-0.93505 -6.279,17.51472 -12.8395,40.99947 -8.8954,31.84266 -12.4369,42.69455 -13.9283,42.67984 -1.1,-0.0108 -4.7,-0.83799 -8,-1.8381 -4.4036,-1.33456 -5.8896,-2.42061 -5.5848,-4.08169 0.3429,-1.86926 30.8613,-111.20583 33.0045,-118.243402 0.6144,-2.01747 1.2453,-2.01174 8.2749,0.0751 7.5459,2.24009 7.6223,2.31424 9.1203,8.850632 5.696,24.85425 22.015,93.19935 22.3284,93.51269 0.211,0.21106 5.6952,-18.65984 12.1871,-41.93534 6.4919,-23.27549 12.1808,-42.77162 12.6421,-43.32473 0.6458,-0.77425 14.2908,2.30743 15.6394,3.53209 0.7822,0.71034 -33.988,121.35639 -35.0423,121.59014 -0.68,0.15075 -3.7626,-0.41381 -6.8502,-1.25458 z M 810.22204,165.54875 c -8.58624,-35.3424 -15.47786,-64.38279 -15.31471,-64.53418 0.60839,-0.56454 67.83146,-16.540232 69.59856,-16.540232 1.5473,0 5.3647,11.75054 5.3647,16.513472 0,0.64908 -11.90574,4.05486 -26.45724,7.5684 -14.55151,3.51354 -26.65221,6.58317 -26.89044,6.82141 -0.36395,0.36395 6.49471,30.66231 7.98099,35.25626 0.32523,1.00525 7.37771,-0.18663 21.59152,-3.64899 11.6097,-2.82803 22.08467,-5.14982 23.27777,-5.15954 2.7419,-0.0223 7.2102,15.83137 4.7046,16.69195 -0.8473,0.29101 -10.8405,2.71714 -22.20716,5.39141 -11.36667,2.67427 -21.06835,5.24555 -21.55931,5.71397 -0.95284,0.90911 6.61705,34.81933 8.15729,36.54154 0.69881,0.78137 44.66308,-8.90117 52.93048,-11.65722 1.5626,-0.52094 6.547,16.33636 5.222,17.66131 -0.5614,0.5614 -67.69334,17.40325 -70.10242,17.58708 -0.37691,0.0288 -7.71039,-28.86423 -16.29663,-64.20664 z m 102.98195,42.01086 c 0,-0.68643 -3.8519,-28.21143 -8.5598,-61.16666 -4.7078,-32.95524 -8.7578,-62.018612 -9,-64.585272 l -0.4402,-4.666666 20,-2.89568 c 26.4971,-3.83636 36.8247,-3.91116 44.2421,-0.32044 12.3246,5.96623 19.7459,19.773206 19.6455,36.549448 -0.069,11.46973 -3.248,19.20722 -11.0247,26.83037 l -5.5622,5.4523 14.4177,22.52533 c 7.9297,12.38894 15.5262,24.20614 16.8812,26.26047 1.4306,2.16917 1.9611,4.20284 1.2652,4.85074 -0.659,0.61359 -5.1676,1.52191 -10.0192,2.0185 l -8.8211,0.90289 -15.5549,-26.08696 c -10.6038,-17.78364 -16.284,-26.08376 -17.8456,-26.0769 -2.5407,0.0112 -19.3885,2.64332 -19.8457,3.10053 -0.1591,0.15907 1.4811,12.53553 3.6448,27.50326 4.1684,28.83521 4.1311,29.31969 -2.2565,29.36572 -1.5583,0.0112 -4.7083,0.39542 -7,0.85375 -2.2926,0.45853 -4.1666,0.27199 -4.1666,-0.41473 z m 24.6666,-77.82863 c 5.8667,-0.83666 12.6036,-2.32557 14.9708,-3.30869 5.8988,-2.44971 9.6847,-9.08752 9.6909,-16.99077 0.01,-12.713192 -6.5068,-20.976852 -16.5081,-20.933262 -5.7942,0.0252 -30.0648,3.44285 -30.985,4.36306 -0.297,0.29706 0.6685,8.764432 2.1457,18.816372 1.4771,10.05194 2.6857,18.89101 2.6857,19.64239 0,0.77527 1.5859,1.05603 3.6667,0.64913 2.0167,-0.39436 8.4667,-1.40156 14.3333,-2.23823 z m 331.68961,76.00044 c -15.711,-3.09055 -27.7082,-15.29032 -31.0992,-31.62429 -1.6572,-7.98289 0.2156,-25.59293 5.6263,-52.90498 4.3189,-21.800372 10.8238,-31.953742 25.3899,-39.630458 13.416,-7.07058 34.9354,-2.26161 43.7934,9.786556 9.3194,12.675732 11.1677,21.808442 8.4349,41.678392 -3.8171,27.75372 -8.2119,46.16096 -12.861,53.86704 -8.4927,14.07694 -24.4811,21.73969 -39.2843,18.82774 z m 15.3766,-20.46372 c 4.4643,-2.32276 8.6318,-6.82642 11.4138,-12.33434 2.8305,-5.60411 8.9277,-38.86637 9.1507,-49.92011 0.3109,-15.40897 -6.3024,-23.822362 -19.5916,-24.924412 -6.3576,-0.52722 -8.1531,-0.11887 -12.6956,2.887212 -2.91,1.9257 -6.4756,5.82371 -7.9238,8.66226 -4.7576,9.32576 -11.7747,50.87421 -10.0267,59.36838 1.2835,6.23681 6.4646,13.40489 11.4726,15.87235 5.5036,2.71164 13.4114,2.8805 18.2006,0.38866 z m -113.7329,6.73618 c -12.0174,-5.6081 -20.8567,-18.21664 -22.7379,-32.43374 -1.0616,-8.02324 1.4676,-43.39236 4.1001,-57.33704 2.2348,-11.838562 4.5414,-16.399202 12.1342,-23.991918 8.1201,-8.1202 15.0315,-11.03471 26.2529,-11.07089 10.7882,-0.0348 21.3437,4.26964 27.069,11.03843 4.7313,5.593686 9.9404,17.059916 10.8579,23.900208 l 0.7316,5.45459 -8.5372,-0.891 c -4.6955,-0.49005 -8.7108,-1.40577 -8.9229,-2.03494 -1.6613,-4.927562 -6.873,-13.100662 -9.6143,-15.077512 -5.1746,-3.7315 -14.659,-4.51388 -20.5916,-1.69865 -11.0161,5.22748 -15.4595,20.350612 -15.8503,53.946262 -0.2072,17.81965 0,19.70268 2.7093,24.05078 3.5817,5.75853 11.866,10.6382 17.9141,10.55184 6.5718,-0.0938 13.2197,-3.88548 17.2558,-9.84187 l 3.5502,-5.23924 8.5029,0.34703 c 4.6766,0.19086 8.7248,0.56892 8.996,0.84014 1.2748,1.27474 -8.0364,18.08573 -12.4764,22.52572 -10.3765,10.3765 -27.7552,13.30289 -41.3434,6.9618 z m -146.6666,0.005 c -6.9415,-2.29319 -15.0273,-6.58974 -19.8458,-10.54546 l -3.8458,-3.15716 5.0517,-7.60853 c 4.8333,-7.27945 5.1726,-7.51973 7.8458,-5.5552 8.2045,6.02944 14.6353,7.88991 27.4607,7.9445 10.2024,0.0434 13.4904,-0.44455 16.9007,-2.50822 11.817,-7.15088 10.1554,-27.23351 -2.5882,-31.28126 -2.3718,-0.75337 -9.4125,-2.01583 -15.6458,-2.80546 -15.2086,-1.92662 -24.5613,-6.60171 -30.2974,-15.14472 -5.3004,-7.89408 -7.0188,-13.83584 -7.0285,-24.302232 -0.015,-16.460016 8.4993,-29.766956 21.9867,-34.362606 13.0294,-4.43954 32.8468,-2.10467 45.638,5.37703 l 5.6321,3.29429 -4.1235,8.22689 c -2.2679,4.524776 -4.3003,8.424816 -4.5164,8.666746 -0.2161,0.24193 -1.8048,-0.48523 -3.5305,-1.61591 -9.1674,-6.006696 -26.4725,-8.270826 -33.8916,-4.43423 -7.1795,3.71264 -9.2022,7.15547 -9.2022,15.6627 0,6.719192 0.5123,8.307232 3.7807,11.718662 4.0884,4.26738 9.1006,5.87654 25.2457,8.10506 16.5772,2.28816 24.6326,7.90262 30.7857,21.45718 3.2775,7.21975 3.8167,24.51332 1.0136,32.50761 -2.4662,7.03378 -9.9739,15.02189 -17.3716,18.48337 -7.6317,3.57098 -30.9661,4.68107 -39.4541,1.87695 z"
       id="path1" />
  </g>
</svg>
